<?xml version="1.0" encoding="UTF-8"?>
<svg version="1.1" xmlns="http://www.w3.org/2000/svg" width="192" height="192">
<path d="M0 0 C1.1900061 -0.01004562 2.38001221 -0.02009125 3.6060791 -0.03044128 C5.56735497 -0.03918777 5.56735497 -0.03918777 7.56825256 -0.04811096 C8.95807633 -0.0576513 10.34789772 -0.06754254 11.73771667 -0.07775879 C16.30628137 -0.10914069 20.8748642 -0.12941883 25.4434967 -0.14796448 C26.22195049 -0.1512618 27.00040427 -0.15455912 27.80244756 -0.15795636 C35.15176677 -0.18875124 42.50109018 -0.2154462 49.85045528 -0.23237514 C59.23232145 -0.25424221 68.61361243 -0.29612288 77.99524873 -0.36581272 C84.60095887 -0.4132029 91.20651472 -0.4373291 97.81238943 -0.44457203 C101.75222811 -0.44950817 105.69141856 -0.46439091 109.63107109 -0.50431633 C113.34544538 -0.54146039 117.05880882 -0.54950325 120.7733345 -0.5363102 C122.76781551 -0.53638898 124.76222866 -0.56606391 126.75646973 -0.59700012 C136.4691087 -0.5195382 144.4303312 1.78128278 151.76599026 8.39032841 C160.44940587 17.32088277 161.88692891 26.06518888 161.84046936 38.2106781 C161.84917949 39.61124755 161.85955106 41.01180749 161.8714447 42.41235352 C161.89808051 46.19360613 161.89939826 49.97445718 161.8943181 53.75578523 C161.89216836 56.92393147 161.90197184 60.09199817 161.91152894 63.26012725 C161.93367036 70.74142689 161.93462243 78.22252566 161.92250061 85.70384216 C161.91042981 93.39473311 161.93503062 101.08489147 161.97764075 108.77565747 C162.01299339 115.40277032 162.02485649 122.02965126 162.01836526 128.65685481 C162.01475757 132.60435379 162.01982829 136.55133037 162.04779434 140.49874306 C162.0731401 144.2149345 162.06889016 147.92999351 162.04297256 151.64616966 C162.03606542 153.64052219 162.05846025 155.63491084 162.08210754 157.62913513 C161.97011565 167.32961904 159.66299274 175.3077086 153.06163979 182.63547993 C144.13054962 191.31858398 135.38695731 192.75640662 123.24110413 192.70994568 C121.84053468 192.71865581 120.43997474 192.72902738 119.03942871 192.74092102 C115.2581761 192.76755683 111.47732505 192.76887458 107.695997 192.76379442 C104.52785076 192.76164468 101.35978406 192.77144815 98.19165498 192.78100526 C90.71035534 192.80314667 83.22925656 192.80409875 75.74794006 192.79197693 C68.05704911 192.77990613 60.36689076 192.80450694 52.67612475 192.84711707 C46.04901191 192.88246971 39.42213096 192.89433281 32.79492742 192.88784158 C28.84742843 192.88423389 24.90045186 192.88930461 20.95303917 192.91727066 C17.23684773 192.94261642 13.52178872 192.93836648 9.80561256 192.91244888 C7.81126004 192.90554174 5.81687138 192.92793656 3.82264709 192.95158386 C-5.87783681 192.83959197 -13.85592637 190.53246906 -21.1836977 183.9311161 C-29.85493966 175.01222681 -31.30261842 166.30114413 -31.22642517 154.17063904 C-31.23185509 152.77668022 -31.23898261 151.38272714 -31.24766541 149.98878479 C-31.2658004 146.22622468 -31.25887192 142.46410647 -31.24614906 138.70153928 C-31.23596805 134.749084 -31.24542901 130.79666465 -31.25169373 126.84420776 C-31.25895622 120.2076697 -31.2494202 113.57131011 -31.23033142 106.93479919 C-31.20857424 99.28263518 -31.2156111 91.63089774 -31.23763704 83.97874409 C-31.25584181 77.38819042 -31.2583244 70.7977645 -31.24788237 64.20719379 C-31.24167405 60.28001133 -31.24073764 56.35302875 -31.25402832 52.42585945 C-31.26566023 48.73119592 -31.25742902 45.0370773 -31.23445129 41.34247208 C-31.22671671 39.35492941 -31.23845781 37.36734017 -31.2509613 35.37982178 C-31.14756649 24.34334855 -28.63496495 16.23252255 -21.0018158 8.14109802 C-14.99620291 2.9539673 -7.89033048 0.05232237 0 0 Z " fill="#C6F2E2" transform="translate(30.708847045898438,-0.1606292724609375)"/>
<path d="M0 0 C0.33 0 0.66 0 1 0 C1.1546875 1.175625 1.1546875 1.175625 1.3125 2.375 C1.77595022 5.33045181 1.77595022 5.33045181 5 7 C7.14943335 7.27877399 7.14943335 7.27877399 9.4375 7.1875 C10.19933594 7.18105469 10.96117188 7.17460937 11.74609375 7.16796875 C13.95155706 7.07545696 13.95155706 7.07545696 15.82885742 6.50219727 C20.09649974 5.51506803 24.51400172 5.77274315 28.875 5.75 C29.85597656 5.729375 30.83695312 5.70875 31.84765625 5.6875 C38.28476143 5.65275179 42.90285626 6.21257063 47.875 10.6875 C48.24625 11.120625 48.6175 11.55375 49 12 C49.99 11.67 50.98 11.34 52 11 C54.35448165 13.55068845 54.98327924 14.71017358 55.1875 18.25 C55.0946875 19.61125 55.0946875 19.61125 55 21 C56.11375 20.814375 57.2275 20.62875 58.375 20.4375 C62 20 62 20 64 21 C63.505 22.485 63.505 22.485 63 24 C62.01 24 61.02 24 60 24 C60.74056641 24.93972656 60.74056641 24.93972656 61.49609375 25.8984375 C62.13675781 26.71570313 62.77742188 27.53296875 63.4375 28.375 C64.07558594 29.18710937 64.71367187 29.99921875 65.37109375 30.8359375 C67.93274015 34.23917995 68.44063576 36.77468515 68.43359375 41.0703125 C67.50132696 47.36941244 64.56184841 53.21296744 62 59 C62.763125 58.9175 63.52625 58.835 64.3125 58.75 C67 59 67 59 68.7890625 60.59765625 C70.34811885 63.69062287 70.39896574 65.98243869 70.375 69.4375 C70.38660156 71.10619141 70.38660156 71.10619141 70.3984375 72.80859375 C69.96028885 76.31807856 69.09537923 78.17948954 67 81 C62.75862069 84 62.75862069 84 60 84 C59.67 90.6 59.34 97.2 59 104 C60.98 104.33 62.96 104.66 65 105 C69.4583625 108.58843811 72.21213392 113.08477765 75 118 C75.47050781 118.81082031 75.94101563 119.62164062 76.42578125 120.45703125 C80.19909327 127.37654147 81.07357931 132.28356551 79 140 C79.88816406 140.14953125 80.77632812 140.2990625 81.69140625 140.453125 C94.7252991 143.1361867 111.85712453 148.91406245 121 159 C119.2243625 165.31337776 114.84524239 170.10242719 109.47808838 173.68193436 C101.37997491 178.0313508 94.71461522 178.86245964 85.609375 178.77636719 C84.20835749 178.78451967 82.80735287 178.79521515 81.40637207 178.80822754 C77.63747488 178.8353393 73.86957452 178.82507777 70.10066223 178.80595303 C66.13446602 178.79063597 62.16834843 178.80488505 58.20214844 178.81427002 C51.54476789 178.82514959 44.88778826 178.81089655 38.23046875 178.78222656 C30.56162762 178.74957934 22.89374396 178.76015896 15.22492599 178.793185 C8.61045583 178.82051738 1.99627191 178.82420448 -4.61823654 178.80855298 C-8.55558691 178.79925567 -12.49248899 178.79779261 -16.42980957 178.81777191 C-20.1337966 178.83525838 -23.83656369 178.82280801 -27.54042053 178.78840637 C-29.52754088 178.77684338 -31.51476589 178.79438316 -33.50183105 178.81317139 C-42.30651683 178.69013955 -48.48025502 176.5606688 -56 172 C-56 171.01 -56 170.02 -56 169 C-49.37117533 162.72252646 -41.3748397 157.82473889 -33.625 153.0625 C-32.87686035 152.60230469 -32.1287207 152.14210937 -31.35791016 151.66796875 C-20.27833042 145 -20.27833042 145 -15 145 C-15.33 143.783125 -15.66 142.56625 -16 141.3125 C-17.57636186 134.13381613 -18.33069422 125.88867304 -15.9375 118.8125 C-13.39666952 115.1241977 -11.25471969 115.00566102 -7 114 C-5.89163577 112.11683841 -5.89163577 112.11683841 -5 110 C-1.875 107.75 -1.875 107.75 1 106 C0.59537634 100.01582904 0.07413189 94.66929383 -2 89 C-2 87.68 -2 86.36 -2 85 C-2.5775 84.79375 -3.155 84.5875 -3.75 84.375 C-7.04664144 82.36038579 -8.26778812 80.46442376 -10 77 C-10.4800735 73.60783229 -10.64446288 70.37326965 -10 67 C-7.55486256 63.84705961 -4.82454938 62.97648069 -1 62 C-0.01 62.495 -0.01 62.495 1 63 C6.98522802 63.67984933 6.98522802 63.67984933 11.9375 60.625 C13.98142313 58.20460719 13.98142313 58.20460719 15 56 C15.66 56 16.32 56 17 56 C17 52.7 17 49.4 17 46 C14.20913914 44.60456957 12.15407671 45.09769494 9.0625 45.375 C8.00160156 45.46523438 6.94070312 45.55546875 5.84765625 45.6484375 C2.9305972 45.91335307 2.9305972 45.91335307 0 47 C-0.33 51.62 -0.66 56.24 -1 61 C-1.33 61 -1.66 61 -2 61 C-2.12117188 60.37351563 -2.24234375 59.74703125 -2.3671875 59.1015625 C-2.61855469 57.87566406 -2.61855469 57.87566406 -2.875 56.625 C-3.03742188 55.81289062 -3.19984375 55.00078125 -3.3671875 54.1640625 C-3.86658932 51.81326077 -3.86658932 51.81326077 -6 50 C-6.35412344 48.67203709 -6.68521554 47.33783393 -7 46 C-7.350625 45.4225 -7.70125 44.845 -8.0625 44.25 C-10.38635959 38.67273699 -9.14571308 33.87189162 -7 28.5 C-6.34682767 26.99407492 -5.68477083 25.49182216 -5 24 C-6.99983534 24.79117904 -6.99983534 24.79117904 -9 26 C-9.495 27.485 -9.495 27.485 -10 29 C-10.66 29 -11.32 29 -12 29 C-12 26.24235663 -11.96906345 24.53174169 -11 22 C-8.56313189 19.62740094 -5.82882474 17.86852841 -3 16 C-2.34 15.34 -1.68 14.68 -1 14 C-1.515625 13.5875 -2.03125 13.175 -2.5625 12.75 C-3.036875 12.1725 -3.51125 11.595 -4 11 C-3.6875 8.8125 -3.6875 8.8125 -3 7 C-2.34 7.33 -1.68 7.66 -1 8 C-1.33 8.66 -1.66 9.32 -2 10 C-0.68 10 0.64 10 2 10 C1.2265625 8.9171875 1.2265625 8.9171875 0.4375 7.8125 C-1.21442982 4.5804634 -1.06351675 3.38391693 0 0 Z " fill="#545365" transform="translate(68,14)"/>
<path d="M0 0 C0.33 0 0.66 0 1 0 C1.103125 0.78375 1.20625 1.5675 1.3125 2.375 C1.77595022 5.33045181 1.77595022 5.33045181 5 7 C7.14943335 7.27877399 7.14943335 7.27877399 9.4375 7.1875 C10.19933594 7.18105469 10.96117188 7.17460937 11.74609375 7.16796875 C13.95155706 7.07545696 13.95155706 7.07545696 15.82885742 6.50219727 C20.09649974 5.51506803 24.51400172 5.77274315 28.875 5.75 C29.85597656 5.729375 30.83695313 5.70875 31.84765625 5.6875 C38.28476143 5.65275179 42.90285626 6.21257063 47.875 10.6875 C48.24625 11.120625 48.6175 11.55375 49 12 C49.99 11.67 50.98 11.34 52 11 C54.35448165 13.55068845 54.98327924 14.71017358 55.1875 18.25 C55.0946875 19.61125 55.0946875 19.61125 55 21 C56.11375 20.814375 57.2275 20.62875 58.375 20.4375 C62 20 62 20 64 21 C63.505 22.485 63.505 22.485 63 24 C62.01 24 61.02 24 60 24 C60.74056641 24.93972656 60.74056641 24.93972656 61.49609375 25.8984375 C62.13675781 26.71570313 62.77742188 27.53296875 63.4375 28.375 C64.07558594 29.18710937 64.71367187 29.99921875 65.37109375 30.8359375 C67.93274015 34.23917995 68.44063576 36.77468515 68.43359375 41.0703125 C67.50132696 47.36941244 64.56184841 53.21296744 62 59 C62.763125 58.9175 63.52625 58.835 64.3125 58.75 C67 59 67 59 68.7890625 60.59765625 C70.34811885 63.69062287 70.39896574 65.98243869 70.375 69.4375 C70.38660156 71.10619141 70.38660156 71.10619141 70.3984375 72.80859375 C69.96028885 76.31807856 69.09537923 78.17948954 67 81 C62.75862069 84 62.75862069 84 60 84 C59.67 90.6 59.34 97.2 59 104 C60.98 104.33 62.96 104.66 65 105 C69.4583625 108.58843811 72.21213392 113.08477765 75 118 C75.47050781 118.81082031 75.94101563 119.62164062 76.42578125 120.45703125 C80.19909327 127.37654147 81.07357931 132.28356551 79 140 C80.33224609 140.22429687 80.33224609 140.22429687 81.69140625 140.453125 C94.7252991 143.1361867 111.85712453 148.91406245 121 159 C119.22241466 165.32030342 114.83796767 170.11371453 109.45941162 173.68862915 C101.49633976 177.95826834 95.09178114 178.81564395 86.140625 178.5859375 C84.87023376 178.57744781 83.59984253 178.56895813 82.29095459 178.56021118 C78.95601042 178.53255139 75.62366115 178.47891716 72.28942871 178.4119873 C68.87026063 178.34997689 65.45082147 178.32307268 62.03125 178.29296875 C55.35346688 178.22720091 48.67688275 178.12708998 42 178 C43.875 171.125 43.875 171.125 45 170 C45.13568319 166.33655389 45.16461426 163.49384279 44 160 C43.76792881 154.39458825 44.30293565 149.35257116 45.4375 143.875 C46.35632857 139.25887562 47.25427437 134.64811508 48 130 C46.68 130 45.36 130 44 130 C43.34 131.32 42.68 132.64 42 134 C41 132 41 132 41 129 C40.01 128.34 39.02 127.68 38 127 C41.3 127 44.6 127 48 127 C47.83628906 125.60007812 47.67257813 124.20015625 47.50390625 122.7578125 C46.90684879 116.78723789 46.887922 110.87012373 46.9375 104.875 C46.94201172 103.823125 46.94652344 102.77125 46.95117188 101.6875 C46.96281989 99.12493779 46.97917447 96.56250123 47 94 C47.66 94 48.32 94 49 94 C49 96.31 49 98.62 49 101 C51.31 101 53.62 101 56 101 C56 95.39 56 89.78 56 84 C52.23975384 86.50683077 51.60807914 88.86493934 50 93 C49.34 93 48.68 93 48 93 C49.2125738 89.27566618 50.50859979 85.62197194 52 82 C53.65 82 55.3 82 57 82 C56.505 78.04 56.505 78.04 56 74 C57.32 73.34 58.64 72.68 60 72 C61 73 61 73 61.09765625 75.06640625 C61.08605469 75.89011719 61.07445312 76.71382813 61.0625 77.5625 C61.05347656 78.38878906 61.04445313 79.21507813 61.03515625 80.06640625 C61.02355469 80.70449219 61.01195312 81.34257813 61 82 C63.90217572 80.42798815 65.22325215 79.70397195 67 77 C67.59762932 72.2943421 67.48750574 67.7146125 67 63 C65.99163938 61.76732652 65.99163938 61.76732652 63.93359375 61.90234375 C63.10988281 61.91394531 62.28617187 61.92554688 61.4375 61.9375 C60.61121094 61.94652344 59.78492187 61.95554688 58.93359375 61.96484375 C58.29550781 61.97644531 57.65742187 61.98804688 57 62 C56.690625 62.94875 56.38125 63.8975 56.0625 64.875 C55 68 55 68 54 70 C53.34 70 52.68 70 52 70 C52.66 63.4 53.32 56.8 54 50 C53.34 50 52.68 50 52 50 C51.95875 51.216875 51.9175 52.43375 51.875 53.6875 C51.4043826 57.17378418 50.93441906 58.08283908 48.625 61 C44.23566768 64.13523737 39.13353841 63.80973117 34 63 C28.96520723 60.59205563 27.41773803 56.16109145 25.30859375 51.2421875 C23.8228733 48.6965053 22.7168884 48.02242312 20 47 C21.65 47 23.3 47 25 47 C25.0825 46.38125 25.165 45.7625 25.25 45.125 C26 43 26 43 27.625 41.88671875 C34.02203428 39.49835233 42.54305828 40.10566361 48.875 42.5 C49.90625 42.995 50.9375 43.49 52 44 C50.36417486 40.8358543 50.36417486 40.8358543 47.75341797 40.3840332 C46.84221191 40.27406006 45.93100586 40.16408691 44.9921875 40.05078125 C44.00605469 39.92509766 43.01992187 39.79941406 42.00390625 39.66992188 C40.45509766 39.49299805 40.45509766 39.49299805 38.875 39.3125 C37.83472656 39.18294922 36.79445312 39.05339844 35.72265625 38.91992188 C33.14965897 38.6012479 30.57578289 38.29516156 28 38 C28.66 36.68 29.32 35.36 30 34 C36.0018137 33.78175223 41.19233704 34.4943096 47 36 C46.67 35.01 46.34 34.02 46 33 C45.96045766 30.66700175 45.95598268 28.33291811 46 26 C44.02 26 42.04 26 40 26 C40.495 27.98 40.495 27.98 41 30 C39.68 29.34 38.36 28.68 37 28 C37 26.35 37 24.7 37 23 C33.53529051 23.72873963 30.23308874 24.53868671 27 26 C25.23902514 29.01773585 25.23902514 29.01773585 25 32 C23.5 30.9375 23.5 30.9375 22 29 C21.56923077 22.86153846 21.56923077 22.86153846 23 20 C16.6374202 21.45165656 10.7553784 22.81939615 5 26 C4.34 26 3.68 26 3 26 C2.79503906 26.61488281 2.59007813 27.22976562 2.37890625 27.86328125 C1.25260417 31.2421875 0.12630208 34.62109375 -1 38 C-1.08209792 39.77313851 -1.10746294 41.54920775 -1.09765625 43.32421875 C-1.09443359 44.35224609 -1.09121094 45.38027344 -1.08789062 46.43945312 C-1.07951172 47.51130859 -1.07113281 48.58316406 -1.0625 49.6875 C-1.05798828 50.77095703 -1.05347656 51.85441406 -1.04882812 52.97070312 C-1.03703743 55.64719085 -1.02058063 58.32356777 -1 61 C-1.33 61 -1.66 61 -2 61 C-2.12117188 60.37351563 -2.24234375 59.74703125 -2.3671875 59.1015625 C-2.53476563 58.28429687 -2.70234375 57.46703125 -2.875 56.625 C-3.03742188 55.81289062 -3.19984375 55.00078125 -3.3671875 54.1640625 C-3.86658932 51.81326077 -3.86658932 51.81326077 -6 50 C-6.35412344 48.67203709 -6.68521554 47.33783393 -7 46 C-7.5259375 45.13375 -7.5259375 45.13375 -8.0625 44.25 C-10.38635959 38.67273699 -9.14571308 33.87189162 -7 28.5 C-6.34682767 26.99407492 -5.68477083 25.49182216 -5 24 C-6.99983534 24.79117904 -6.99983534 24.79117904 -9 26 C-9.33 26.99 -9.66 27.98 -10 29 C-10.66 29 -11.32 29 -12 29 C-12 26.24235663 -11.96906345 24.53174169 -11 22 C-8.56313189 19.62740094 -5.82882474 17.86852841 -3 16 C-2.34 15.34 -1.68 14.68 -1 14 C-1.515625 13.5875 -2.03125 13.175 -2.5625 12.75 C-3.2740625 11.88375 -3.2740625 11.88375 -4 11 C-3.6875 8.8125 -3.6875 8.8125 -3 7 C-2.34 7.33 -1.68 7.66 -1 8 C-1.33 8.66 -1.66 9.32 -2 10 C-0.68 10 0.64 10 2 10 C1.2265625 8.9171875 1.2265625 8.9171875 0.4375 7.8125 C-1.21442982 4.5804634 -1.06351675 3.38391693 0 0 Z " fill="#090909" transform="translate(68,14)"/>
<path d="M0 0 C1.65 0 3.3 0 5 0 C5.31453125 0.68707031 5.6290625 1.37414062 5.953125 2.08203125 C6.38109375 2.98308594 6.8090625 3.88414063 7.25 4.8125 C7.66765625 5.70582031 8.0853125 6.59914063 8.515625 7.51953125 C10.1241719 10.20749777 11.26928845 11.48457809 14 13 C18.96859011 13.82192772 23.52072771 13.72454153 28.0625 11.5 C30.70858305 8.08569929 31.22347946 5.23556656 32 1 C32.66 1 33.32 1 34 1 C34.26618595 7.95041086 33.6120509 14.23514355 32 21 C32.66 21 33.32 21 34 21 C34.268125 20.071875 34.53625 19.14375 34.8125 18.1875 C36.55145119 13.51978892 36.55145119 13.51978892 39 12 C42.5625 11.6875 42.5625 11.6875 46 12 C48.83582815 14.83582815 48.36710656 16.85804476 48.4375 20.8125 C48.34943321 28.61842009 48.34943321 28.61842009 45.625 31.375 C43 33 43 33 41 33 C40.505 28.545 40.505 28.545 40 24 C39.01 24.33 38.02 24.66 37 25 C37 27.64 37 30.28 37 33 C35.35 33 33.7 33 32 33 C31.896875 33.70125 31.79375 34.4025 31.6875 35.125 C30.90640997 38.39137647 29.57941257 41.0471852 28 44 C28.66 44 29.32 44 30 44 C30.2475 42.88625 30.495 41.7725 30.75 40.625 C32 37 32 37 34.125 35.5625 C34.74375 35.376875 35.3625 35.19125 36 35 C37.22517308 40.66642551 37.09228867 46.23708518 37 52 C33.71303767 52.79953138 32.28976808 53.09658936 29 52 C29 49.69 29 47.38 29 45 C28.34 45 27.68 45 27 45 C27.33 55.89 27.66 66.78 28 78 C24.37 78 20.74 78 17 78 C13.28152836 81.71847164 12.19840276 86.00665515 11 91 C7.37 91 3.74 91 0 91 C-0.71614583 88.72135417 -1.43229167 86.44270833 -2.1484375 84.1640625 C-2.89854283 81.83540815 -2.89854283 81.83540815 -5 80 C-5.31884766 77.38623047 -5.31884766 77.38623047 -5.4140625 74.1171875 C-5.45273438 72.95058594 -5.49140625 71.78398437 -5.53125 70.58203125 C-5.5621875 69.35871094 -5.593125 68.13539063 -5.625 66.875 C-5.68300781 65.02841797 -5.68300781 65.02841797 -5.7421875 63.14453125 C-5.8366999 60.09650624 -5.92225494 57.04849138 -6 54 C-10.95 54.495 -10.95 54.495 -16 55 C-18.44064587 49.35600642 -18.19289099 44.02248522 -18 38 C-15.54176828 41.68734758 -14.98757384 44.69699971 -14 49 C-13.34 49 -12.68 49 -12 49 C-12.33773437 48.154375 -12.67546875 47.30875 -13.0234375 46.4375 C-17.04207137 36.21669709 -19.36554732 28.04765248 -19 17 C-18.41992188 16.90203125 -17.83984375 16.8040625 -17.2421875 16.703125 C-11.90353568 15.68120485 -8.31114768 14.31626744 -4 11 C-3.01 13.97 -2.02 16.94 -1 20 C-0.34 20 0.32 20 1 20 C0.51080078 18.93458984 0.51080078 18.93458984 0.01171875 17.84765625 C-1.05973109 14.83187659 -1.23621947 12.62198143 -1.1875 9.4375 C-1.18105469 8.50808594 -1.17460938 7.57867187 -1.16796875 6.62109375 C-1.01753445 4.27361898 -0.66160428 2.24945456 0 0 Z " fill="#F2D5B9" transform="translate(88,63)"/>
<path d="M0 0 C3.26011642 0.69378511 4.79038253 1.45893991 7 4 C6.67 4.99 6.34 5.98 6 7 C5.01 6.67 4.02 6.34 3 6 C3 6.66 3 7.32 3 8 C4.32 8.33 5.64 8.66 7 9 C6.68500867 12.56990169 5.73954766 14.54079548 3.4375 17.1875 C0.78168982 19.63160157 0.78168982 19.63160157 1 22 C1.598125 21.0925 2.19625 20.185 2.8125 19.25 C5 16 5 16 6.625 14.125 C8.34167994 11.47194918 8.31096026 9.87765985 8.1875 6.75 C8.16042969 5.85796875 8.13335937 4.9659375 8.10546875 4.046875 C8.05326172 3.03367187 8.05326172 3.03367187 8 2 C12.91860539 6.50274662 15.65121017 12.85701122 18 19 C18.66 19.99 19.32 20.98 20 22 C20.4140625 24.91796875 20.4140625 24.91796875 20.625 28.1875 C20.69976562 29.27417969 20.77453125 30.36085937 20.8515625 31.48046875 C20.90054688 32.31191406 20.94953125 33.14335937 21 34 C21.88816406 34.14953125 22.77632812 34.2990625 23.69140625 34.453125 C36.7252991 37.1361867 53.85712453 42.91406245 63 53 C61.22172134 59.32276857 56.83551319 64.12668707 51.44403076 67.68862915 C43.61370496 71.86954937 37.37806955 72.82025826 28.578125 72.5859375 C26.73912628 72.57320297 26.73912628 72.57320297 24.86297607 72.56021118 C20.99104645 72.52693104 17.12128794 72.4516926 13.25 72.375 C10.60680115 72.34486792 7.96356928 72.31749786 5.3203125 72.29296875 C-1.12051811 72.22722284 -7.5601039 72.12712976 -14 72 C-12.125 65.125 -12.125 65.125 -11 64 C-10.93724932 62.53125953 -10.94059619 61.05957446 -10.97265625 59.58984375 C-10.99102539 58.22762695 -10.99102539 58.22762695 -11.00976562 56.83789062 C-11.04442626 54.93155551 -11.0833613 53.02529243 -11.12695312 51.11914062 C-11.19573326 45.3618384 -10.65808771 40.52045672 -9 35 C-6.9375 36.75 -6.9375 36.75 -5 39 C-5.25 41.25 -5.25 41.25 -6 43 C-5.67 43 -5.34 43 -5 43 C-4.74951364 40.12549017 -4.74951364 40.12549017 -5 37 C-5.98020375 35.9805881 -6.97803008 34.97753644 -8 34 C-7.6875 32.0625 -7.6875 32.0625 -7 30 C-7 28.68 -7 27.36 -7 26 C-6.34 25.01 -5.68 24.02 -5 23 C-5 22.01 -5 21.02 -5 20 C-4.34 20 -3.68 20 -3 20 C-3 19.34 -3 18.68 -3 18 C-3.66 18 -4.32 18 -5 18 C-4.51030705 11.38914524 -2.66557258 6.05022986 0 0 Z " fill="#565569" transform="translate(126,120)"/>
<path d="M0 0 C2.31 0 4.62 0 7 0 C7.06731323 1.15000488 7.06731323 1.15000488 7.13598633 2.32324219 C7.34741593 5.79985054 7.5797175 9.27475883 7.8125 12.75 C7.88275391 13.9565625 7.95300781 15.163125 8.02539062 16.40625 C8.10595703 17.56640625 8.18652344 18.7265625 8.26953125 19.921875 C8.33760986 20.99018555 8.40568848 22.05849609 8.47583008 23.15917969 C9.05170646 26.28023117 10.04003637 27.57249572 12 30 C12.6875 33.75 12.6875 33.75 13 37 C16.63 37 20.26 37 24 37 C24.2475 35.618125 24.495 34.23625 24.75 32.8125 C25.68380549 28.67241131 26.73602116 25.89095268 30 23 C32.75 22.6875 32.75 22.6875 35 23 C35 25.33333333 35 27.66666667 35 30 C35.66 29.01 36.32 28.02 37 27 C39.625 26.3125 39.625 26.3125 42 26 C41.23645658 31.70063004 40.19158511 37.32139886 39.01757812 42.95117188 C37.8890669 48.6826747 37.11840913 54.35522738 39 60 C39.6592322 66.72416846 38.37050205 68.25899591 35 75 C22.13 75 9.26 75 -4 75 C-4 72.69 -4 70.38 -4 68 C-5.65 67.67 -7.3 67.34 -9 67 C-9.125 60.25 -9.125 60.25 -8 58 C-8.598125 57.731875 -9.19625 57.46375 -9.8125 57.1875 C-11.97224808 56.01506533 -13.35790256 54.80630718 -15 53 C-14.67 52.34 -14.34 51.68 -14 51 C-13.51789062 51.42152344 -13.03578125 51.84304687 -12.5390625 52.27734375 C-11.90742187 52.82519531 -11.27578125 53.37304688 -10.625 53.9375 C-9.68527344 54.75541016 -9.68527344 54.75541016 -8.7265625 55.58984375 C-7.04367666 57.06958624 -7.04367666 57.06958624 -5 58 C-5.28875 57.00742188 -5.5775 56.01484375 -5.875 54.9921875 C-8.4441215 45.74151828 -9.54311803 37.65543162 -9 28 C-8.34 28.33 -7.68 28.66 -7 29 C-6.76381187 31.2632204 -6.63853843 33.53825957 -6.5625 35.8125 C-6.28395291 42.00144492 -5.32885102 47.62813903 -3.62109375 53.609375 C-3 56 -3 56 -3 59 C-2.34 59 -1.68 59 -1 59 C-1.07105957 58.07662842 -1.14211914 57.15325684 -1.21533203 56.2019043 C-1.47379692 52.77519496 -1.72240395 49.34806537 -1.96435547 45.92016602 C-2.07108617 44.43680387 -2.18173694 42.95371836 -2.29638672 41.47094727 C-2.46052341 39.33931119 -2.61052818 37.20707723 -2.7578125 35.07421875 C-2.8520752 33.79119873 -2.94633789 32.50817871 -3.04345703 31.1862793 C-3 28 -3 28 -1 25 C-0.34 25 0.32 25 1 25 C0.86722656 24.41734375 0.73445313 23.8346875 0.59765625 23.234375 C-0.8289025 16.61181027 -2.12905754 9.79703035 -2 3 C-1.34 2.34 -0.68 1.68 0 1 C0 0.67 0 0.34 0 0 Z " fill="#3C3433" transform="translate(75,117)"/>
<path d="M0 0 C3.26011642 0.69378511 4.79038253 1.45893991 7 4 C6.67 4.99 6.34 5.98 6 7 C5.01 6.67 4.02 6.34 3 6 C3 6.66 3 7.32 3 8 C4.32 8.33 5.64 8.66 7 9 C6.68500867 12.56990169 5.73954766 14.54079548 3.4375 17.1875 C0.78168982 19.63160157 0.78168982 19.63160157 1 22 C1.598125 21.0925 2.19625 20.185 2.8125 19.25 C5 16 5 16 6.625 14.125 C8.34167994 11.47194918 8.31096026 9.87765985 8.1875 6.75 C8.16042969 5.85796875 8.13335937 4.9659375 8.10546875 4.046875 C8.05326172 3.03367187 8.05326172 3.03367187 8 2 C12.91860539 6.50274662 15.65121017 12.85701122 18 19 C18.66 19.99 19.32 20.98 20 22 C22.39696466 30.80778138 20.19229898 37.04871221 16.0546875 44.7734375 C10.55349599 53.41219071 10.55349599 53.41219071 6.6875 54.875 C6.130625 54.91625 5.57375 54.9575 5 55 C4.88785156 55.69480469 4.77570313 56.38960937 4.66015625 57.10546875 C3.91553885 60.37032964 2.75599912 63.23600205 1.4375 66.3125 C0.2309375 69.1278125 0.2309375 69.1278125 -1 72 C-5.29 72 -9.58 72 -14 72 C-12.125 65.125 -12.125 65.125 -11 64 C-10.93724932 62.53125953 -10.94059619 61.05957446 -10.97265625 59.58984375 C-10.99102539 58.22762695 -10.99102539 58.22762695 -11.00976562 56.83789062 C-11.04442626 54.93155551 -11.0833613 53.02529243 -11.12695312 51.11914062 C-11.19573326 45.3618384 -10.65808771 40.52045672 -9 35 C-6.9375 36.75 -6.9375 36.75 -5 39 C-5.25 41.25 -5.25 41.25 -6 43 C-5.67 43 -5.34 43 -5 43 C-4.74951364 40.12549017 -4.74951364 40.12549017 -5 37 C-5.98020375 35.9805881 -6.97803008 34.97753644 -8 34 C-7.6875 32.0625 -7.6875 32.0625 -7 30 C-7 28.68 -7 27.36 -7 26 C-6.34 25.01 -5.68 24.02 -5 23 C-5 22.01 -5 21.02 -5 20 C-4.34 20 -3.68 20 -3 20 C-3 19.34 -3 18.68 -3 18 C-3.66 18 -4.32 18 -5 18 C-4.51030705 11.38914524 -2.66557258 6.05022986 0 0 Z " fill="#555467" transform="translate(126,120)"/>
<path d="M0 0 C1.2065625 0.0309375 1.2065625 0.0309375 2.4375 0.0625 C2.4375 2.39583333 2.4375 4.72916667 2.4375 7.0625 C3.0975 6.0725 3.7575 5.0825 4.4375 4.0625 C7.0625 3.375 7.0625 3.375 9.4375 3.0625 C8.67395658 8.76313004 7.62908511 14.38389886 6.45507812 20.01367188 C5.3265669 25.7451747 4.55590913 31.41772738 6.4375 37.0625 C7.0967322 43.78666846 5.80800205 45.32149591 2.4375 52.0625 C-5.1525 52.0625 -12.7425 52.0625 -20.5625 52.0625 C-20.5625 44.0625 -20.5625 44.0625 -19.5625 43.0625 C-18.27460048 34.12670333 -18.45181215 25.06511207 -18.5625 16.0625 C-15.2625 16.0625 -11.9625 16.0625 -8.5625 16.0625 C-7.91413958 14.31343469 -7.26891216 12.56320781 -6.625 10.8125 C-6.26535156 9.83796875 -5.90570313 8.8634375 -5.53515625 7.859375 C-4.55115486 5.16927149 -4.55115486 5.16927149 -3.99609375 2.765625 C-3.29159051 -0.00161294 -2.94040427 0.07171718 0 0 Z " fill="#545263" transform="translate(107.5625,139.9375)"/>
<path d="M0 0 C-0.01160156 0.62648437 -0.02320312 1.25296875 -0.03515625 1.8984375 C-0.04417969 2.71570312 -0.05320312 3.53296875 -0.0625 4.375 C-0.07410156 5.18710937 -0.08570312 5.99921875 -0.09765625 6.8359375 C-0.14466334 9.04937142 -0.14466334 9.04937142 1 11 C1.309375 9.8553125 1.309375 9.8553125 1.625 8.6875 C3.46297567 5.09509301 5.26807727 4.39032415 9 3 C11.875 2.8125 11.875 2.8125 14 3 C14.28875 3.969375 14.5775 4.93875 14.875 5.9375 C15.64214682 9.10664203 15.64214682 9.10664203 18 10 C17.505 8.02 17.505 8.02 17 6 C18.98 6 20.96 6 23 6 C23.66 9.63 24.32 13.26 25 17 C23.515 16.67 22.03 16.34 20.5 16 C15.8539378 15.0826667 11.72635767 14.57800378 7 15 C6.01 16.485 6.01 16.485 5 18 C6.14597656 18.04898438 7.29195312 18.09796875 8.47265625 18.1484375 C10.00262535 18.22352801 11.53257218 18.29907306 13.0625 18.375 C13.81466797 18.4059375 14.56683594 18.436875 15.34179688 18.46875 C20.17435962 18.71979222 24.50578856 19.1336141 29 21 C30.4375 23.625 30.4375 23.625 31 26 C30.44054687 25.71125 29.88109375 25.4225 29.3046875 25.125 C21.94812305 21.71874508 15.04580146 21.1285404 7 22 C3.79064944 23.20903964 3.79064944 23.20903964 2 26 C-1.71599191 26.20086443 -2.77208445 26.1519437 -6 24 C-9.03333393 23.71914232 -9.03333393 23.71914232 -12.375 23.8125 C-14.05722656 23.82216797 -14.05722656 23.82216797 -15.7734375 23.83203125 C-18.62977637 23.98072686 -21.22110266 24.34950905 -24 25 C-24.51964748 18.08580161 -24.40220144 11.6791759 -20 6 C-13.88554738 1.67967007 -7.45012075 -0.21286059 0 0 Z " fill="#EBCFB5" transform="translate(91,34)"/>
<path d="M0 0 C0.33 0 0.66 0 1 0 C1 2.31 1 4.62 1 7 C2.03253906 6.51273438 2.03253906 6.51273438 3.0859375 6.015625 C6.42518858 4.85181095 9.09575742 4.7337736 12.625 4.75 C13.75164062 4.74484375 14.87828125 4.7396875 16.0390625 4.734375 C19 5 19 5 22 7 C23.65549531 7.38499891 25.3222433 7.72793135 27 8 C26.67 8.99 26.34 9.98 26 11 C24.68 11 23.36 11 22 11 C21.97287649 13.39591038 21.9531018 15.79150957 21.9375 18.1875 C21.92493164 19.19780273 21.92493164 19.19780273 21.91210938 20.22851562 C21.89393462 23.95434131 22.10700608 27.3788042 23 31 C22.34 31 21.68 31 21 31 C19.68 28.36 18.36 25.72 17 23 C16.360625 23.639375 15.72125 24.27875 15.0625 24.9375 C11.08069118 27.61912635 7.705208 27.79498004 3 28 C3.91034544 37.57900796 5.70788989 46.00997291 8.9765625 55.05078125 C10 58 10 58 10 60 C9.34 60 8.68 60 8 60 C7.01 57.36 6.02 54.72 5 52 C4.91666643 56.8333472 5.04738513 61.23692563 6 66 C7.32 66.33 8.64 66.66 10 67 C8.515 67.495 8.515 67.495 7 68 C7.4640625 69.546875 7.4640625 69.546875 7.9375 71.125 C9.45160045 77.23626053 10.29573983 83.70953387 10 90 C8.5234375 91.75 8.5234375 91.75 7 93 C6.74930087 95.62570704 6.74930087 95.62570704 7 98 C4.8614515 95.8614515 4.57344937 94.86724686 4 92 C2.02 91.67 0.04 91.34 -2 91 C-2 87.04 -2 83.08 -2 79 C-4.64 79.33 -7.28 79.66 -10 80 C-8.68 80.99 -7.36 81.98 -6 83 C-8.97 83.495 -8.97 83.495 -12 84 C-12.33 89.61 -12.66 95.22 -13 101 C-16.50484806 95.7427279 -15.68802637 88.74661635 -14.5703125 82.66015625 C-13.9375 80.8125 -13.9375 80.8125 -12 78 C-8.4375 76.8125 -8.4375 76.8125 -5 76 C-3.89163577 74.11683841 -3.89163577 74.11683841 -3 72 C0.125 69.75 0.125 69.75 3 68 C2.59537634 62.01582904 2.07413189 56.66929383 0 51 C0 49.68 0 48.36 0 47 C-0.5775 46.79375 -1.155 46.5875 -1.75 46.375 C-5.04664144 44.36038579 -6.26778812 42.46442376 -8 39 C-8.4800735 35.60783229 -8.64446288 32.37326965 -8 29 C-5.55486256 25.84705961 -2.82454938 24.97648069 1 24 C1.66 24.33 2.32 24.66 3 25 C8.98522802 25.67984933 8.98522802 25.67984933 13.9375 22.625 C15.98142313 20.20460719 15.98142313 20.20460719 17 18 C17.66 18 18.32 18 19 18 C19 14.7 19 11.4 19 8 C16.22194226 6.61097113 14.20347821 7.09650686 11.125 7.375 C9.55105469 7.51035156 9.55105469 7.51035156 7.9453125 7.6484375 C5.08186046 7.92328188 5.08186046 7.92328188 2.6796875 8.6015625 C1.84824219 8.79878906 1.84824219 8.79878906 1 9 C0 8 0 8 -0.09765625 6.15234375 C-0.04882812 3.07617188 -0.04882812 3.07617188 0 0 Z " fill="#242824" transform="translate(66,52)"/>
<path d="M0 0 C2.31 0 4.62 0 7 0 C6.96519531 0.61746094 6.93039063 1.23492187 6.89453125 1.87109375 C6.70006843 7.95500202 7.13024145 13.52029643 10 19 C13.4352048 21.29013653 14.985331 21.17842973 19 21 C19.33 20.34 19.66 19.68 20 19 C21.32 19 22.64 19 24 19 C23.18858182 23.05709091 21.72146672 25.98324433 20 30 C12.41 30 4.82 30 -3 30 C-3 22 -3 22 -2 21 C-1.79162581 19.17093765 -1.63250341 17.33611866 -1.5 15.5 C-1.11111111 10.11111111 -1.11111111 10.11111111 0 9 C0.07179964 7.48071962 0.08392007 5.95832518 0.0625 4.4375 C0.04896484 3.19806641 0.04896484 3.19806641 0.03515625 1.93359375 C0.02355469 1.29550781 0.01195313 0.65742188 0 0 Z " fill="#EAC491" transform="translate(90,162)"/>
<path d="M0 0 C-0.33 3.3 -0.66 6.6 -1 10 C-1.66 10 -2.32 10 -3 10 C-3.2475 10.763125 -3.495 11.52625 -3.75 12.3125 C-5.19058109 15.40974934 -5.95022608 16.47511304 -9 18 C-14.58456106 18.54044139 -18.20213732 18.19857512 -23 15 C-24.1875 12.9375 -24.1875 12.9375 -25 11 C-25.99 10.34 -26.98 9.68 -28 9 C-27.34 7.02 -26.68 5.04 -26 3 C-24.125 3.25 -24.125 3.25 -22 4 C-20.75 6.0625 -20.75 6.0625 -20 8 C-19.9175 6.88625 -19.835 5.7725 -19.75 4.625 C-19 1 -19 1 -17.3125 -0.375 C-11.37190734 -1.98056558 -5.3367841 -3.55785606 0 0 Z " fill="#E4C9B2" transform="translate(86,60)"/>
<path d="M0 0 C1.14662109 -0.01836914 1.14662109 -0.01836914 2.31640625 -0.03710938 C6.58722392 -0.04817367 9.85360395 0.2159236 13.75 2.1875 C13.75 3.8375 13.75 5.4875 13.75 7.1875 C7.48 7.1875 1.21 7.1875 -5.25 7.1875 C-5.58 7.8475 -5.91 8.5075 -6.25 9.1875 C-5.26 8.8575 -4.27 8.5275 -3.25 8.1875 C-0.51134713 8.11698886 2.20027588 8.09392235 4.9375 8.125 C5.68708984 8.12951172 6.43667969 8.13402344 7.20898438 8.13867188 C9.05602383 8.15043646 10.90302213 8.16837135 12.75 8.1875 C11.921875 14.953125 11.921875 14.953125 10.375 17.0625 C6.68215843 19.61908262 3.08967983 19.55526948 -1.25 19.1875 C-5.26675768 17.2563665 -6.93201281 15.73115552 -9.1875 11.875 C-10.35899653 7.80921792 -10.2305725 5.27321874 -9.25 1.1875 C-7.17135808 -0.89114192 -2.85812111 0.00236208 0 0 Z " fill="#EDD2B7" transform="translate(105.25,56.8125)"/>
<path d="M0 0 C2 2 2 2 2.125 4.625 C2.08375 5.40875 2.0425 6.1925 2 7 C2.66 7 3.32 7 4 7 C4 9.31 4 11.62 4 14 C5.32 14.33 6.64 14.66 8 15 C7.01 15 6.02 15 5 15 C5.15146484 15.5347998 5.30292969 16.06959961 5.45898438 16.62060547 C6.14200905 19.03798743 6.82105016 21.45647057 7.5 23.875 C7.73847656 24.71675781 7.97695312 25.55851562 8.22265625 26.42578125 C8.44824219 27.23144531 8.67382812 28.03710938 8.90625 28.8671875 C9.11572266 29.61081543 9.32519531 30.35444336 9.54101562 31.12060547 C10 33 10 33 10 35 C9.34 35 8.68 35 8 35 C8.16371094 35.69480469 8.32742187 36.38960937 8.49609375 37.10546875 C9.04095996 40.2352816 9.09738483 43.13798083 9.0625 46.3125 C9.05347656 47.38113281 9.04445313 48.44976562 9.03515625 49.55078125 C9.02355469 50.35902344 9.01195313 51.16726562 9 52 C8.34 51.67 7.68 51.34 7 51 C6.96261719 49.70707031 6.92523438 48.41414063 6.88671875 47.08203125 C6.56095096 37.91374251 6.03572017 29.31803258 3.62109375 20.43359375 C3 18 3 18 3 15 C2.01 15.495 2.01 15.495 1 16 C0.97298592 18.10409639 0.95359777 20.20829178 0.9375 22.3125 C0.92589844 23.48425781 0.91429688 24.65601563 0.90234375 25.86328125 C0.85100102 29.03059195 0.85100102 29.03059195 2 32 C2.09668595 34.84370451 2.13923837 37.6570727 2.125 40.5 C2.13080078 41.65822266 2.13080078 41.65822266 2.13671875 42.83984375 C2.13099051 46.14503737 2.05207501 48.84377498 1 52 C0.34 52 -0.32 52 -1 52 C-1 52.66 -1 53.32 -1 54 C-0.34 54 0.32 54 1 54 C1 57.3 1 60.6 1 64 C-0.32 64 -1.64 64 -3 64 C-3 61.69 -3 59.38 -3 57 C-4.65 56.67 -6.3 56.34 -8 56 C-8.125 49.25 -8.125 49.25 -7 47 C-7.598125 46.731875 -8.19625 46.46375 -8.8125 46.1875 C-10.97224808 45.01506533 -12.35790256 43.80630718 -14 42 C-13.67 41.34 -13.34 40.68 -13 40 C-12.51789062 40.42152344 -12.03578125 40.84304687 -11.5390625 41.27734375 C-10.90742187 41.82519531 -10.27578125 42.37304688 -9.625 42.9375 C-8.68527344 43.75541016 -8.68527344 43.75541016 -7.7265625 44.58984375 C-6.04367666 46.06958624 -6.04367666 46.06958624 -4 47 C-4.28875 46.00742188 -4.5775 45.01484375 -4.875 43.9921875 C-7.4441215 34.74151828 -8.54311803 26.65543162 -8 17 C-7.34 17.33 -6.68 17.66 -6 18 C-5.76381187 20.2632204 -5.63853843 22.53825957 -5.5625 24.8125 C-5.28395291 31.00144492 -4.32885102 36.62813903 -2.62109375 42.609375 C-2 45 -2 45 -2 48 C-1.34 48 -0.68 48 0 48 C-0.07105957 47.07662842 -0.14211914 46.15325684 -0.21533203 45.2019043 C-0.47379692 41.77519496 -0.72240395 38.34806537 -0.96435547 34.92016602 C-1.07108617 33.43680387 -1.18173694 31.95371836 -1.29638672 30.47094727 C-1.46052341 28.33931119 -1.61052818 26.20707723 -1.7578125 24.07421875 C-1.8520752 22.79119873 -1.94633789 21.50817871 -2.04345703 20.1862793 C-2 17 -2 17 0 14 C0.66 14 1.32 14 2 14 C1.855625 13.32453125 1.71125 12.6490625 1.5625 11.953125 C1.376875 11.06109375 1.19125 10.1690625 1 9.25 C0.814375 8.36828125 0.62875 7.4865625 0.4375 6.578125 C0 4 0 4 0 0 Z " fill="#18171F" transform="translate(74,128)"/>
<path d="M0 0 C0.66 0 1.32 0 2 0 C5.61303598 12.03225005 6.74303713 23.46021203 7 36 C7.33 31.05 7.66 26.1 8 21 C10.52775351 24.79163027 10.22443035 27.80874031 10.125 32.1875 C10.11597656 32.93708984 10.10695313 33.68667969 10.09765625 34.45898438 C10.07412578 36.30612654 10.03825561 38.15310412 10 40 C8.078125 39.62890625 8.078125 39.62890625 6 39 C4.75 36.9375 4.75 36.9375 4 35 C3.505 35.495 3.505 35.495 3 36 C5.0140476 39.0210714 6.63279613 40.60667426 10 42 C10 44.31 10 46.62 10 49 C6.7 49 3.4 49 0 49 C0 45.7 0 42.4 0 39 C-0.66 39 -1.32 39 -2 39 C-2 38.34 -2 37.68 -2 37 C-1.34 37 -0.68 37 0 37 C0.02887512 33.35418313 0.04675585 29.70839537 0.0625 26.0625 C0.07087891 25.02158203 0.07925781 23.98066406 0.08789062 22.90820312 C0.09111328 21.91884766 0.09433594 20.92949219 0.09765625 19.91015625 C0.10289307 18.99371338 0.10812988 18.07727051 0.11352539 17.13305664 C0.23921211 15.01636977 0.23921211 15.01636977 -1 14 C-1.0989294 11.83519203 -1.129711 9.66706215 -1.125 7.5 C-1.12757812 6.3140625 -1.13015625 5.128125 -1.1328125 3.90625 C-1 1 -1 1 0 0 Z " fill="#514F5F" transform="translate(75,143)"/>
<path d="M0 0 C0.33 0 0.66 0 1 0 C1 2.31 1 4.62 1 7 C1.68835938 6.67515625 2.37671875 6.3503125 3.0859375 6.015625 C6.42518858 4.85181095 9.09575742 4.7337736 12.625 4.75 C13.75164062 4.74484375 14.87828125 4.7396875 16.0390625 4.734375 C19 5 19 5 22 7 C23.65549531 7.38499891 25.3222433 7.72793135 27 8 C26.67 8.99 26.34 9.98 26 11 C24.68 11 23.36 11 22 11 C21.97287649 13.39591038 21.9531018 15.79150957 21.9375 18.1875 C21.92912109 18.86103516 21.92074219 19.53457031 21.91210938 20.22851562 C21.89393462 23.95434131 22.10700608 27.3788042 23 31 C22.34 31 21.68 31 21 31 C19.68 28.36 18.36 25.72 17 23 C16.360625 23.639375 15.72125 24.27875 15.0625 24.9375 C11.08069118 27.61912635 7.705208 27.79498004 3 28 C3.020625 29.27875 3.04125 30.5575 3.0625 31.875 C3.125 35.75 3.125 35.75 2 38 C1.01 38 0.02 38 -1 38 C-1 40.31 -1 42.62 -1 45 C-3.9997387 42.69250869 -5.66304741 41.25210785 -6.66015625 37.546875 C-7.53026609 30.70601142 -7.53026609 30.70601142 -5.6328125 28.1796875 C-4 27 -4 27 -1.875 27.25 C0 28 0 28 1 29 C1.66 27.68 2.32 26.36 3 25 C4.216875 25.103125 5.43375 25.20625 6.6875 25.3125 C10.36567343 25.33206475 10.87734417 25.09916854 13.9375 22.625 C15.98142313 20.20460719 15.98142313 20.20460719 17 18 C17.66 18 18.32 18 19 18 C19 14.7 19 11.4 19 8 C16.22194226 6.61097113 14.20347821 7.09650686 11.125 7.375 C9.55105469 7.51035156 9.55105469 7.51035156 7.9453125 7.6484375 C5.08186046 7.92328188 5.08186046 7.92328188 2.6796875 8.6015625 C2.12539062 8.73304687 1.57109375 8.86453125 1 9 C0 8 0 8 -0.09765625 6.15234375 C-0.06510417 4.1015625 -0.03255208 2.05078125 0 0 Z " fill="#3B2E27" transform="translate(66,52)"/>
<path d="M0 0 C3.26011642 0.69378511 4.79038253 1.45893991 7 4 C6.67 4.99 6.34 5.98 6 7 C5.01 6.67 4.02 6.34 3 6 C3 6.66 3 7.32 3 8 C4.32 8.33 5.64 8.66 7 9 C6.61885756 13.31961427 4.98141154 15.24250967 2.12109375 18.39453125 C0.69729001 20.16653925 0.69729001 20.16653925 0.5625 23.5625 C-0.04397331 27.26872577 -0.33242082 27.68994644 -3.0625 29.9375 C-4.5165625 30.9584375 -4.5165625 30.9584375 -6 32 C-6.66 31.67 -7.32 31.34 -8 31 C-7.34 30.34 -6.68 29.68 -6 29 C-6.33 28.01 -6.66 27.02 -7 26 C-6.34 25.01 -5.68 24.02 -5 23 C-5 22.01 -5 21.02 -5 20 C-4.34 20 -3.68 20 -3 20 C-3 19.34 -3 18.68 -3 18 C-3.66 18 -4.32 18 -5 18 C-4.51030705 11.38914524 -2.66557258 6.05022986 0 0 Z " fill="#595153" transform="translate(126,120)"/>
<path d="M0 0 C0.33 0 0.66 0 1 0 C0.67 3.3 0.34 6.6 0 10 C0.66 10.33 1.32 10.66 2 11 C1.34 11.66 0.68 12.32 0 13 C0.36681658 15.93453261 0.86437246 16.86437246 3 19 C3.125 22.125 3.125 22.125 3 25 C1.02 25.99 1.02 25.99 -1 27 C-0.34 26.01 0.32 25.02 1 24 C0.6878236 21.35367713 0.6878236 21.35367713 0 19 C-0.66 19 -1.32 19 -2 19 C-3.38329092 25.35680256 -2.96784159 31.6678652 -2.69726562 38.125 C-2.57203765 44.56264554 -3.69664343 48.45762965 -7 54 C-7.66 53.67 -8.32 53.34 -9 53 C-8.505 51.989375 -8.01 50.97875 -7.5 49.9375 C-5.45368443 45.17885105 -5.3571652 40.92850441 -7 36 C-7.23207119 30.39458825 -6.69706435 25.35257116 -5.5625 19.875 C-4.64367143 15.25887562 -3.74572563 10.64811508 -3 6 C-4.32 6 -5.64 6 -7 6 C-7.66 7.32 -8.32 8.64 -9 10 C-10 8 -10 8 -10 5 C-10.99 4.34 -11.98 3.68 -13 3 C-9.37 3.33 -5.74 3.66 -2 4 C-2 3.34 -2 2.68 -2 2 C-1.34 2 -0.68 2 0 2 C0 1.34 0 0.68 0 0 Z " fill="#101016" transform="translate(119,138)"/>
<path d="M0 0 C2.83582815 2.83582815 2.36710656 4.85804476 2.4375 8.8125 C2.34943321 16.61842009 2.34943321 16.61842009 -0.375 19.375 C-3 21 -3 21 -5 21 C-5.07347656 20.06027344 -5.07347656 20.06027344 -5.1484375 19.1015625 C-5.22320312 18.28429687 -5.29796875 17.46703125 -5.375 16.625 C-5.47941406 15.40683594 -5.47941406 15.40683594 -5.5859375 14.1640625 C-5.82892588 11.79665809 -5.82892588 11.79665809 -8 10 C-10.06874034 9.3574765 -10.06874034 9.3574765 -12 9 C-9.80533711 1.40308999 -8.23265829 -0.74842348 0 0 Z " fill="#E7CCB5" transform="translate(134,75)"/>
<path d="M0 0 C1.09582162 2.74600005 1.08328233 3.79273345 -0.0390625 6.5859375 C-7.75151924 20.1492235 -7.75151924 20.1492235 -12.3125 21.875 C-12.869375 21.91625 -13.42625 21.9575 -14 22 C-14.16822266 23.04220703 -14.16822266 23.04220703 -14.33984375 24.10546875 C-15.08446115 27.37032964 -16.24400088 30.23600205 -17.5625 33.3125 C-18.01753906 34.38113281 -18.47257812 35.44976562 -18.94140625 36.55078125 C-19.46541016 37.76314453 -19.46541016 37.76314453 -20 39 C-20.66 38.34 -21.32 37.68 -22 37 C-23.32 37 -24.64 37 -26 37 C-26.33 33.7 -26.66 30.4 -27 27 C-25.4325 26.46375 -23.865 25.9275 -22.25 25.375 C-17.24067089 23.40806004 -15.53017671 21.63865731 -13 17 C-12.34 17 -11.68 17 -11 17 C-10.67 16.01 -10.34 15.02 -10 14 C-9.38640625 13.73445312 -8.7728125 13.46890625 -8.140625 13.1953125 C-5.00266667 11.44309489 -4.25283086 9.08559319 -2.75 5.875 C-2.22921875 4.77929688 -1.7084375 3.68359375 -1.171875 2.5546875 C-0.78515625 1.71164063 -0.3984375 0.86859375 0 0 Z " fill="#18161D" transform="translate(145,153)"/>
<path d="M0 0 C2 1 2 1 3.0703125 4.203125 C3.43032859 5.54985184 3.78151579 6.89896211 4.125 8.25 C4.30675781 8.91902344 4.48851563 9.58804688 4.67578125 10.27734375 C5.62918571 13.92608714 6.21929409 17.22814164 6 21 C4.02 21.99 4.02 21.99 2 23 C2 22.01 2 21.02 2 20 C0.35 20 -1.3 20 -3 20 C-4.26237731 17.47524538 -4.09856404 15.68799534 -4.0625 12.875 C-4.05347656 11.96492187 -4.04445313 11.05484375 -4.03515625 10.1171875 C-4.02355469 9.41851562 -4.01195313 8.71984375 -4 8 C-4.33 8.33 -4.66 8.66 -5 9 C-5.99 8.67 -6.98 8.34 -8 8 C-6.88333826 4.65001479 -6.25305075 4.20659778 -3.4375 2.3125 C-2.79683594 1.87550781 -2.15617187 1.43851562 -1.49609375 0.98828125 C-1.00238281 0.66214844 -0.50867188 0.33601563 0 0 Z " fill="#595052" transform="translate(70,121)"/>
<path d="M0 0 C0.99 0 1.98 0 3 0 C3.0825 0.61875 3.165 1.2375 3.25 1.875 C3.80583476 4.16088794 3.80583476 4.16088794 5.9375 5.1875 C6.618125 5.455625 7.29875 5.72375 8 6 C8.66 6.33 9.32 6.66 10 7 C10 9.97 10 12.94 10 16 C11.32 16.33 12.64 16.66 14 17 C14 19.31 14 21.62 14 24 C11.36 24 8.72 24 6 24 C4.38786238 19.26648954 2.81626319 14.51907753 1.3125 9.75 C1.06113281 8.96109375 0.80976562 8.1721875 0.55078125 7.359375 C-0.03917747 4.83217594 -0.09629107 2.58610291 0 0 Z " fill="#444251" transform="translate(57,168)"/>
<path d="M0 0 C1.19367188 -0.00515625 2.38734375 -0.0103125 3.6171875 -0.015625 C7.10730337 0.24865994 9.87153337 0.99637065 13.125 2.25 C12.465 2.91 11.805 3.57 11.125 4.25 C10.465 3.92 9.805 3.59 9.125 3.25 C6.24129667 3.17805131 3.38260336 3.15708292 0.5 3.1875 C-0.30179688 3.19201172 -1.10359375 3.19652344 -1.9296875 3.20117188 C-3.91149006 3.21296832 -5.89325433 3.23090395 -7.875 3.25 C-9.00468142 9.09482871 -9.00468142 9.09482871 -7.1875 14.5625 C-6.85363281 15.21863281 -6.51976563 15.87476562 -6.17578125 16.55078125 C-4.59666873 18.61358589 -3.29028246 19.32945838 -0.875 20.25 C2.83583861 20.58734896 5.44333297 20.50751865 8.9375 19.1875 C11.89950385 16.91379409 11.89950385 16.91379409 13.125 10.25 C6.855 10.58 0.585 10.91 -5.875 11.25 C-5.545 10.26 -5.215 9.27 -4.875 8.25 C8.7582574 8.06548975 8.7582574 8.06548975 15.125 9.25 C14.95936082 14.13635573 14.82627566 16.36417811 11.75 20.25 C7.36066768 23.38523737 2.25853841 23.05973117 -2.875 22.25 C-7.90979277 19.84205563 -9.45726197 15.41109145 -11.56640625 10.4921875 C-13.0521267 7.9465053 -14.1581116 7.27242312 -16.875 6.25 C-15.225 6.25 -13.575 6.25 -11.875 6.25 C-11.7925 5.63125 -11.71 5.0125 -11.625 4.375 C-10.875 2.25 -10.875 2.25 -9.2578125 1.1328125 C-6.08972402 -0.04093831 -3.37332564 -0.01450893 0 0 Z " fill="#524137" transform="translate(104.875,54.75)"/>
<path d="M0 0 C0.33 0 0.66 0 1 0 C1 1.98 1 3.96 1 6 C0.34 6 -0.32 6 -1 6 C-1.2475 6.763125 -1.495 7.52625 -1.75 8.3125 C-3.19058109 11.40974934 -3.95022608 12.47511304 -7 14 C-9.75796931 14.29568872 -12.20591593 14.18321863 -15 14 C-16 13 -16 13 -16.09765625 11.15234375 C-16.06510417 9.1015625 -16.03255208 7.05078125 -16 5 C-15.45730469 4.8659375 -14.91460937 4.731875 -14.35546875 4.59375 C-11.66866189 3.91647862 -8.98956796 3.21483791 -6.3125 2.5 C-5.33925781 2.2421875 -4.36601563 1.984375 -3.36328125 1.71875 C-1.06560764 1.22252842 -1.06560764 1.22252842 0 0 Z " fill="#EED1B7" transform="translate(84,64)"/>
<path d="M0 0 C2 2 2 2 2.125 4.625 C2.08375 5.40875 2.0425 6.1925 2 7 C2.66 7 3.32 7 4 7 C4 9.31 4 11.62 4 14 C5.32 14.33 6.64 14.66 8 15 C7.01 15 6.02 15 5 15 C5.15146484 15.5347998 5.30292969 16.06959961 5.45898438 16.62060547 C6.14200905 19.03798743 6.82105016 21.45647057 7.5 23.875 C7.73847656 24.71675781 7.97695312 25.55851562 8.22265625 26.42578125 C8.44824219 27.23144531 8.67382812 28.03710938 8.90625 28.8671875 C9.11572266 29.61081543 9.32519531 30.35444336 9.54101562 31.12060547 C10 33 10 33 10 35 C9.34 35 8.68 35 8 35 C8.16371094 35.69480469 8.32742187 36.38960937 8.49609375 37.10546875 C9.04095996 40.2352816 9.09738483 43.13798083 9.0625 46.3125 C9.05347656 47.38113281 9.04445313 48.44976562 9.03515625 49.55078125 C9.02355469 50.35902344 9.01195313 51.16726562 9 52 C8.34 51.67 7.68 51.34 7 51 C6.96261719 49.70707031 6.92523438 48.41414063 6.88671875 47.08203125 C6.56095096 37.91374251 6.03572017 29.31803258 3.62109375 20.43359375 C3 18 3 18 3 15 C2.01 15.495 2.01 15.495 1 16 C0.97298592 18.10409639 0.95359777 20.20829178 0.9375 22.3125 C0.92589844 23.48425781 0.91429688 24.65601563 0.90234375 25.86328125 C0.85100102 29.03059195 0.85100102 29.03059195 2 32 C1.91343435 34.39870613 1.76001509 36.79537281 1.5625 39.1875 C1.40974609 41.09595703 1.40974609 41.09595703 1.25390625 43.04296875 C1.17011719 44.01878906 1.08632812 44.99460938 1 46 C0.67 46 0.34 46 0 46 C-0.3355451 41.92590428 -0.65661969 37.85095146 -0.96435547 33.7746582 C-1.07106238 32.3882792 -1.18171133 31.00219772 -1.29638672 29.61645508 C-1.46057731 27.62403797 -1.60940149 25.63037335 -1.7578125 23.63671875 C-1.8520752 22.43748779 -1.94633789 21.23825684 -2.04345703 20.00268555 C-2 17 -2 17 0 14 C0.66 14 1.32 14 2 14 C1.855625 13.32453125 1.71125 12.6490625 1.5625 11.953125 C1.376875 11.06109375 1.19125 10.1690625 1 9.25 C0.814375 8.36828125 0.62875 7.4865625 0.4375 6.578125 C0 4 0 4 0 0 Z " fill="#100D10" transform="translate(74,128)"/>
<path d="M0 0 C1.13173788 3.39521365 0.69803782 5.53994203 0 9 C-0.517383 15.7458783 -0.30215295 21.03072351 3 27 C3.66 27.66 4.32 28.32 5 29 C2.625 28.75 2.625 28.75 0 28 C-2.17831524 25.09557968 -2.19715281 22.54875053 -2 19 C-2.99 18.67 -3.98 18.34 -5 18 C-4.34 18 -3.68 18 -3 18 C-3 14.7 -3 11.4 -3 8 C-5.31 8 -7.62 8 -10 8 C-10 10.97 -10 13.94 -10 17 C-10.33 17 -10.66 17 -11 17 C-11 12.05 -11 7.1 -11 2 C-7.7 2 -4.4 2 -1 2 C-0.67 1.34 -0.34 0.68 0 0 Z " fill="#493E39" transform="translate(100,154)"/>
<path d="M0 0 C0 5 0 10 0 15 C1.65 15 3.3 15 5 15 C5.33 17.97 5.66 20.94 6 24 C3.8614515 21.8614515 3.57344937 20.86724686 3 18 C1.02 17.67 -0.96 17.34 -3 17 C-3 13.04 -3 9.08 -3 5 C-5.64 5.33 -8.28 5.66 -11 6 C-9.68 6.99 -8.36 7.98 -7 9 C-8.98 9.33 -10.96 9.66 -13 10 C-13.33 15.61 -13.66 21.22 -14 27 C-17.2515945 22.12260825 -16.45957189 16.70692252 -16 11 C-15.29663791 8.24100548 -14.46533137 6.47979154 -13 4 C-11 3 -11 3 -7.0625 3.125 C-3.7735321 3.22058376 -3.7735321 3.22058376 -1 1.5 C-0.67 1.005 -0.34 0.51 0 0 Z " fill="#1B181C" transform="translate(67,126)"/>
<path d="M0 0 C5.89759531 3.09822997 7.91060966 7.29837648 11 13 C11.49242187 13.85722656 11.98484375 14.71445313 12.4921875 15.59765625 C15.45308837 21.00924625 16.77213761 24.82289915 16 31 C15.34 31.66 14.68 32.32 14 33 C13.96261719 32.32453125 13.92523438 31.6490625 13.88671875 30.953125 C13.82097656 30.06109375 13.75523437 29.1690625 13.6875 28.25 C13.62949219 27.36828125 13.57148438 26.4865625 13.51171875 25.578125 C12.92442833 22.61925722 11.86055492 21.33373308 10 19 C8.9146536 16.51008766 7.99553433 13.98779384 7.0625 11.4375 C5.98450415 8.9644507 4.69855711 7.08459281 3 5 C3.12375 6.155 3.2475 7.31 3.375 8.5 C3.40009228 13.23407591 1.48902867 15.56808864 -1.46484375 19.1015625 C-3.43326688 21.53579569 -4.71965173 24.15478163 -6 27 C-6.75 25.375 -6.75 25.375 -7 23 C-5.2862503 20.06214338 -3.3720957 17.46511962 -1.25 14.8125 C0.28386648 12.95535017 0.28386648 12.95535017 0 10 C-0.99 9.67 -1.98 9.34 -3 9 C-3 8.34 -3 7.68 -3 7 C-2.01 7 -1.02 7 0 7 C0 4.69 0 2.38 0 0 Z " fill="#242C2A" transform="translate(132,119)"/>
<path d="M0 0 C1.65 0.33 3.3 0.66 5 1 C6.06059488 8.68931285 6.09928082 16.24506486 6 24 C5.34 24 4.68 24 4 24 C3.67 22.02 3.34 20.04 3 18 C2.34 18 1.68 18 1 18 C0.44428052 15.54407842 -0.09497489 13.08647254 -0.625 10.625 C-0.78484375 9.92632812 -0.9446875 9.22765625 -1.109375 8.5078125 C-1.49427354 6.68829213 -1.75556082 4.84365147 -2 3 C-1.34 2.34 -0.68 1.68 0 1 C0 0.67 0 0.34 0 0 Z " fill="#5B5555" transform="translate(75,117)"/>
<path d="M0 0 C0.66 0 1.32 0 2 0 C3.22517308 5.66642551 3.09228867 11.23708518 3 17 C-0.28696233 17.79953138 -1.71023192 18.09658936 -5 17 C-5.46060581 10.55151869 -4.41348898 6.49722522 -1 1 C-0.67 0.67 -0.34 0.34 0 0 Z " fill="#BFE7D7" transform="translate(122,98)"/>
<path d="M0 0 C0.66 1.32 1.32 2.64 2 4 C3.65 3.01 5.3 2.02 7 1 C8.25127906 4.54667178 7.72285053 6.72253438 6.5625 10.25 C6.27503906 11.14203125 5.98757812 12.0340625 5.69140625 12.953125 C5.46324219 13.62859375 5.23507813 14.3040625 5 15 C5.66 15 6.32 15 7 15 C7 15.66 7 16.32 7 17 C6.34 17 5.68 17 5 17 C5.33 18.65 5.66 20.3 6 22 C5.01 22.33 4.02 22.66 3 23 C3 21.02 3 19.04 3 17 C2.34 17 1.68 17 1 17 C1 17.66 1 18.32 1 19 C-0.98 19 -2.96 19 -5 19 C-5 18.67 -5 18.34 -5 18 C-3.35 18 -1.7 18 0 18 C0 12.06 0 6.12 0 0 Z " fill="#191413" transform="translate(116,123)"/>
<path d="M0 0 C0.66 0 1.32 0 2 0 C2 2.31 2 4.62 2 7 C4.64 7 7.28 7 10 7 C10 7.66 10 8.32 10 9 C9.34 9 8.68 9 8 9 C8.12375 9.886875 8.2475 10.77375 8.375 11.6875 C8 15 8 15 5.125 17.6875 C4.09375 18.450625 3.0625 19.21375 2 20 C1.34 20.99 0.68 21.98 0 23 C0 15.41 0 7.82 0 0 Z " fill="#44433C" transform="translate(115,108)"/>
<path d="M0 0 C1.875 0.75 1.875 0.75 2.875 1.75 C2.94679964 3.26928038 2.95892007 4.79167482 2.9375 6.3125 C2.92847656 7.13878906 2.91945313 7.96507813 2.91015625 8.81640625 C2.89855469 9.45449219 2.88695313 10.09257813 2.875 10.75 C2.215 10.75 1.555 10.75 0.875 10.75 C0.875 13.06 0.875 15.37 0.875 17.75 C-2.1247387 15.44250869 -3.78804741 14.00210785 -4.78515625 10.296875 C-5.65526609 3.45601142 -5.65526609 3.45601142 -3.7578125 0.9296875 C-2.125 -0.25 -2.125 -0.25 0 0 Z " fill="#EBD2BB" transform="translate(64.125,79.25)"/>
<path d="M0 0 C3 1 3 1 5 4 C7.05003955 5.19232613 7.05003955 5.19232613 9 6 C9 8.31 9 10.62 9 13 C5.7 13 2.4 13 -1 13 C-1.02686553 11.02090602 -1.04633375 9.04171029 -1.0625 7.0625 C-1.07410156 5.96035156 -1.08570312 4.85820312 -1.09765625 3.72265625 C-1 1 -1 1 0 0 Z " fill="#49454B" transform="translate(76,179)"/>
<path d="M0 0 C2.45823172 3.68734758 3.01242616 6.69699971 4 11 C4.99 10.67 5.98 10.34 7 10 C7 10.66 7 11.32 7 12 C12.28 12.33 17.56 12.66 23 13 C23 13.66 23 14.32 23 15 C12.605 15.99 12.605 15.99 2 17 C0.38687662 12.16062987 -0.24163445 9.90701244 -0.125 5.125 C-0.10695313 4.15820312 -0.08890625 3.19140625 -0.0703125 2.1953125 C-0.04710938 1.47085938 -0.02390625 0.74640625 0 0 Z " fill="#93A59A" transform="translate(70,101)"/>
<path d="M0 0 C1.09582162 2.74600005 1.08328233 3.79273345 -0.0390625 6.5859375 C-7.75151924 20.1492235 -7.75151924 20.1492235 -12.3125 21.875 C-12.869375 21.91625 -13.42625 21.9575 -14 22 C-14.12246094 22.71542969 -14.24492187 23.43085938 -14.37109375 24.16796875 C-15.01135375 27.05112713 -15.93551556 29.58592473 -17.0625 32.3125 C-17.42472656 33.19550781 -17.78695312 34.07851562 -18.16015625 34.98828125 C-18.43730469 35.65214844 -18.71445313 36.31601563 -19 37 C-19.33 37 -19.66 37 -20 37 C-20.35218938 32.06934875 -19.37409064 29.29162538 -17 25 C-16.649375 24.113125 -16.29875 23.22625 -15.9375 22.3125 C-15 20 -15 20 -13 17 C-12.34 17 -11.68 17 -11 17 C-10.67 16.01 -10.34 15.02 -10 14 C-9.38640625 13.73445312 -8.7728125 13.46890625 -8.140625 13.1953125 C-5.00266667 11.44309489 -4.25283086 9.08559319 -2.75 5.875 C-2.22921875 4.77929688 -1.7084375 3.68359375 -1.171875 2.5546875 C-0.78515625 1.71164063 -0.3984375 0.86859375 0 0 Z " fill="#17171F" transform="translate(145,153)"/>
<path d="M0 0 C0.66 0.33 1.32 0.66 2 1 C1.54625 1.66 1.0925 2.32 0.625 3 C-1.35320433 6.65206954 -2.10774292 9.95052557 -3 14 C-6.63 13.67 -10.26 13.34 -14 13 C-14 17.95 -14 22.9 -14 28 C-13.01 28.33 -12.02 28.66 -11 29 C-11.99 29 -12.98 29 -14 29 C-14 31.97 -14 34.94 -14 38 C-14.33 38 -14.66 38 -15 38 C-15.33 28.76 -15.66 19.52 -16 10 C-12.04 10.33 -8.08 10.66 -4 11 C-3.71125 9.55625 -3.4225 8.1125 -3.125 6.625 C-2.25 2.25 -2.25 2.25 0 0 Z " fill="#2B2321" transform="translate(103,143)"/>
<path d="M0 0 C6.6344655 -0.37553578 12.80593702 0.46606514 19 3 C19.99 4.485 19.99 4.485 21 6 C18.40293872 7.29853064 17.06844107 6.87175317 14.2109375 6.44140625 C13.26992187 6.30283203 12.32890625 6.16425781 11.359375 6.02148438 C9.88210937 5.79428711 9.88210937 5.79428711 8.375 5.5625 C7.38242188 5.41490234 6.38984375 5.26730469 5.3671875 5.11523438 C2.91055973 4.74910235 0.45495991 4.37712686 -2 4 C-1.34 2.68 -0.68 1.36 0 0 Z " fill="#1A1310" transform="translate(98,48)"/>
<path d="M0 0 C0.33 0 0.66 0 1 0 C1.33 6.6 1.66 13.2 2 20 C2.33 15.05 2.66 10.1 3 5 C5.52775351 8.79163027 5.22443035 11.80874031 5.125 16.1875 C5.11597656 16.93708984 5.10695313 17.68667969 5.09765625 18.45898438 C5.07412578 20.30612654 5.03825561 22.15310412 5 24 C3.078125 23.62890625 3.078125 23.62890625 1 23 C-0.25 20.9375 -0.25 20.9375 -1 19 C-1.66 19 -2.32 19 -3 19 C-3.66 19.66 -4.32 20.32 -5 21 C-4.67 19.02 -4.34 17.04 -4 15 C-3.67 15.66 -3.34 16.32 -3 17 C-2.34 16.67 -1.68 16.34 -1 16 C-0.68758545 13.28553021 -0.48663408 10.66090639 -0.375 7.9375 C-0.33632812 7.17888672 -0.29765625 6.42027344 -0.2578125 5.63867188 C-0.16326438 3.75952805 -0.08053244 1.87979664 0 0 Z M-7 21 C-6.34 21 -5.68 21 -5 21 C-5 21.66 -5 22.32 -5 23 C-5.66 23 -6.32 23 -7 23 C-7 22.34 -7 21.68 -7 21 Z " fill="#524F5C" transform="translate(80,159)"/>
<path d="M0 0 C2.31 0 4.62 0 7 0 C7 3.3 7 6.6 7 10 C4.69 10.33 2.38 10.66 0 11 C-0.33 12.32 -0.66 13.64 -1 15 C-1.042721 13.33388095 -1.04063832 11.66617115 -1 10 C-0.67 9.67 -0.34 9.34 0 9 C0.07179964 7.48071962 0.08392007 5.95832518 0.0625 4.4375 C0.05347656 3.61121094 0.04445313 2.78492188 0.03515625 1.93359375 C0.02355469 1.29550781 0.01195313 0.65742188 0 0 Z " fill="#CFAD86" transform="translate(90,162)"/>
<path d="M0 0 C0.99 0.33 1.98 0.66 3 1 C1.65421875 1.78310547 1.65421875 1.78310547 0.28125 2.58203125 C-6.84581648 6.77084734 -13.81540659 11.12255944 -20.625 15.8125 C-21.28693359 16.26794189 -21.94886719 16.72338379 -22.63085938 17.19262695 C-26.19657741 19.67211487 -29.64220507 22.2404329 -33 25 C-33 24.01 -33 23.02 -33 22 C-23.65534787 13.15064746 -11.48094302 5.74047151 0 0 Z " fill="#293234" transform="translate(45,161)"/>
<path d="M0 0 C10.8688313 -0.82028915 19.57448408 4.14225457 29 9 C29.83764893 9.42716309 30.67529785 9.85432617 31.53833008 10.29443359 C32.33005615 10.71289551 33.12178223 11.13135742 33.9375 11.5625 C34.64777344 11.93503906 35.35804688 12.30757812 36.08984375 12.69140625 C38.27288281 14.18694426 39.52842003 15.81800211 41 18 C37.2416643 16.61606411 34.02188193 14.86234675 30.625 12.75 C21.10220409 7.12556197 10.92617364 2.91687257 0 1 C0 0.67 0 0.34 0 0 Z " fill="#242A2E" transform="translate(148,156)"/>
<path d="M0 0 C0.33 0 0.66 0 1 0 C2.7479503 5.24385089 3.19392201 9.47322267 3 15 C4.65 14.67 6.3 14.34 8 14 C8 14.99 8 15.98 8 17 C4.04 17 0.08 17 -4 17 C-2.125 10.125 -2.125 10.125 -1 9 C-0.76807135 7.48530552 -0.58784762 5.96245438 -0.4375 4.4375 C-0.35371094 3.61121094 -0.26992187 2.78492188 -0.18359375 1.93359375 C-0.12300781 1.29550781 -0.06242187 0.65742188 0 0 Z " fill="#545062" transform="translate(116,175)"/>
<path d="M0 0 C0.33 0 0.66 0 1 0 C1.36692116 2.49870275 1.7187099 4.99809525 2.0625 7.5 C2.16626953 8.19609375 2.27003906 8.8921875 2.37695312 9.609375 C3.05235795 14.63997643 2.80733869 18.98659609 2 24 C1.34 24 0.68 24 0 24 C0 21.69 0 19.38 0 17 C-1.98 16.67 -3.96 16.34 -6 16 C-6.185625 15.071875 -6.185625 15.071875 -6.375 14.125 C-6.87197356 11.80879168 -6.87197356 11.80879168 -9 10 C-7.68 10 -6.36 10 -5 10 C-4.731875 10.639375 -4.46375 11.27875 -4.1875 11.9375 C-3.11332248 14.33131686 -3.11332248 14.33131686 0 15 C0 10.05 0 5.1 0 0 Z " fill="#28201F" transform="translate(85,168)"/>
<path d="M0 0 C1.89453125 0.23046875 1.89453125 0.23046875 4 1 C5.01171875 2.92578125 5.01171875 2.92578125 5.6875 5.3125 C5.91824219 6.09238281 6.14898437 6.87226562 6.38671875 7.67578125 C6.94193288 9.77993672 7.48245243 11.88627768 8 14 C3.288 12.512 3.288 12.512 1.875 10 C1.58625 9.34 1.2975 8.68 1 8 C0.01 7.34 -0.98 6.68 -2 6 C-1.34 4.02 -0.68 2.04 0 0 Z " fill="#3E4A42" transform="translate(60,63)"/>
<path d="M0 0 C0 2.97 0 5.94 0 9 C-0.33 9 -0.66 9 -1 9 C-1.66 7.02 -2.32 5.04 -3 3 C-4.32 3.33 -5.64 3.66 -7 4 C-8.37263859 8.52970734 -7.55161114 11.59015781 -6 16 C-5.34 16.99 -4.68 17.98 -4 19 C-3.67 17.02 -3.34 15.04 -3 13 C-2.67 13 -2.34 13 -2 13 C-2 15.97 -2 18.94 -2 22 C-6.56092392 19.71953804 -7.74458175 18.5108365 -10 14 C-10.4800735 10.60783229 -10.64446288 7.37326965 -10 4 C-7.1193157 0.4613321 -4.48347942 -1.49449314 0 0 Z " fill="#45443C" transform="translate(68,77)"/>
<path d="M0 0 C0.99 0 1.98 0 3 0 C4.70616234 9.59716315 5.15787807 17.45726445 0 26 C-0.66 25.67 -1.32 25.34 -2 25 C-1.505 23.989375 -1.01 22.97875 -0.5 21.9375 C1.54631557 17.17885105 1.6428348 12.92850441 0 8 C-0.12781786 5.32605036 -0.04391871 2.67904143 0 0 Z " fill="#191418" transform="translate(112,166)"/>
<path d="M0 0 C0 0.33 0 0.66 0 1 C-2.31 1.33 -4.62 1.66 -7 2 C-5.68 2.99 -4.36 3.98 -3 5 C-4.98 5.33 -6.96 5.66 -9 6 C-9.33 11.61 -9.66 17.22 -10 23 C-13.2515945 18.12260825 -12.45957189 12.70692252 -12 7 C-11.29663791 4.24100548 -10.46533137 2.47979154 -9 0 C-5.93109813 -1.53445094 -3.29905734 -0.54984289 0 0 Z " fill="#262C31" transform="translate(63,130)"/>
<path d="M0 0 C-0.33 1.32 -0.66 2.64 -1 4 C-1.75925781 4.20496094 -2.51851562 4.40992188 -3.30078125 4.62109375 C-4.29464844 4.89050781 -5.28851563 5.15992188 -6.3125 5.4375 C-7.29863281 5.70433594 -8.28476563 5.97117187 -9.30078125 6.24609375 C-11.21517526 6.78079425 -13.11433615 7.37144538 -15 8 C-14.765625 6.140625 -14.765625 6.140625 -14 4 C-9.8654574 1.23224834 -5.0109623 -0.64657578 0 0 Z " fill="#261D19" transform="translate(84,49)"/>
<path d="M0 0 C1.40053506 2.80107012 1.2075504 5.18891681 1.25 8.3125 C1.28867188 10.00826172 1.28867188 10.00826172 1.328125 11.73828125 C0.96791534 15.31893683 0.24526507 17.20391055 -2 20 C-2.99 20 -3.98 20 -5 20 C-4.50886719 19.48953125 -4.01773438 18.9790625 -3.51171875 18.453125 C-1.44877777 15.10551018 -1.70422499 12.64790028 -1.8125 8.75 C-1.83957031 7.48671875 -1.86664063 6.2234375 -1.89453125 4.921875 C-1.92933594 3.95765625 -1.96414062 2.9934375 -2 2 C-4.31 1.34 -6.62 0.68 -9 0 C-9 -0.33 -9 -0.66 -9 -1 C-5.25616401 -2.03995444 -3.27217674 -2.22040564 0 0 Z " fill="#464A42" transform="translate(137,75)"/>
<path d="M0 0 C0.66 0.33 1.32 0.66 2 1 C2 2.98 2 4.96 2 7 C1.34 6.34 0.68 5.68 0 5 C-0.639375 5.639375 -1.27875 6.27875 -1.9375 6.9375 C-5.91930882 9.61912635 -9.294792 9.79498004 -14 10 C-13.938125 11.918125 -13.938125 11.918125 -13.875 13.875 C-13.8046875 16.0546875 -13.8046875 16.0546875 -14 18 C-14.66 18.66 -15.32 19.32 -16 20 C-15.67 15.71 -15.34 11.42 -15 7 C-12.9271875 7.1546875 -12.9271875 7.1546875 -10.8125 7.3125 C-6.91726953 7.33090266 -6.2212232 7.17513503 -3 4.625 C-1.02011556 2.19550917 -1.02011556 2.19550917 0 0 Z " fill="#65554B" transform="translate(83,70)"/>
<path d="M0 0 C0.66 0.33 1.32 0.66 2 1 C2.55804955 6.2084625 2.46251726 8.93621249 -0.8125 13.125 C-1.35777344 13.77726563 -1.90304688 14.42953125 -2.46484375 15.1015625 C-4.43326688 17.53579569 -5.71965173 20.15478163 -7 23 C-7.75 21.375 -7.75 21.375 -8 19 C-6.2862503 16.06214338 -4.3720957 13.46511962 -2.25 10.8125 C-0.71613352 8.95535017 -0.71613352 8.95535017 -1 6 C-1.99 5.67 -2.98 5.34 -4 5 C-4 4.34 -4 3.68 -4 3 C-3.01 3 -2.02 3 -1 3 C-0.67 2.01 -0.34 1.02 0 0 Z " fill="#1B171B" transform="translate(133,123)"/>
<path d="M0 0 C1.65 0 3.3 0 5 0 C6 1 6 1 6.4375 3.25 C5.76954321 7.44858555 3.3691394 8.54333585 0 11 C0 7.37 0 3.74 0 0 Z " fill="#5C5656" transform="translate(117,117)"/>
<path d="M0 0 C0.33 0.66 0.66 1.32 1 2 C3.52733235 2.65555119 3.52733235 2.65555119 6 3 C6.33 4.32 6.66 5.64 7 7 C6.34 7 5.68 7 5 7 C5 6.01 5 5.02 5 4 C4.01 4 3.02 4 2 4 C1.34 5.65 0.68 7.3 0 9 C-1.65 9 -3.3 9 -5 9 C-3.90931332 5.22454612 -3.0916909 2.52956528 0 0 Z " fill="#9F8A78" transform="translate(127,75)"/>
<path d="M0 0 C0.33 0 0.66 0 1 0 C1.103125 0.78375 1.20625 1.5675 1.3125 2.375 C1.77595022 5.33045181 1.77595022 5.33045181 5 7 C6.9896995 7.39013716 8.99019869 7.73202649 11 8 C11 8.33 11 8.66 11 9 C9.948125 9.0825 8.89625 9.165 7.8125 9.25 C3.72952791 10.05320762 1.9877273 11.19334709 -1 14 C-2.5625 12.75 -2.5625 12.75 -4 11 C-3.6875 8.8125 -3.6875 8.8125 -3 7 C-2.34 7.33 -1.68 7.66 -1 8 C-1.33 8.66 -1.66 9.32 -2 10 C-0.68 10 0.64 10 2 10 C1.2265625 8.9171875 1.2265625 8.9171875 0.4375 7.8125 C-1.21442982 4.5804634 -1.06351675 3.38391693 0 0 Z " fill="#232F29" transform="translate(68,14)"/>
<path d="M0 0 C13.6332574 -0.18451025 13.6332574 -0.18451025 20 1 C19.67 3.64 19.34 6.28 19 9 C18.34 8.34 17.68 7.68 17 7 C17.33 5.35 17.66 3.7 18 2 C8.595 2.495 8.595 2.495 -1 3 C-0.67 2.01 -0.34 1.02 0 0 Z " fill="#55433A" transform="translate(100,63)"/>
<path d="M0 0 C1.32 1.32 2.64 2.64 4 4 C3.34 5.32 2.68 6.64 2 8 C2.845625 7.46375 3.69125 6.9275 4.5625 6.375 C8.84517642 4.66192943 10.77749945 5.39544979 15 7 C15 7.33 15 7.66 15 8 C10.05 8.66 5.1 9.32 0 10 C0 6.7 0 3.4 0 0 Z " fill="#D3BBA7" transform="translate(67,49)"/>
<path d="M0 0 C3.53571429 0.53571429 3.53571429 0.53571429 5 2 C5.04063832 3.66617115 5.042721 5.33388095 5 7 C4.67 6.34 4.34 5.68 4 5 C3.34 5 2.68 5 2 5 C1.67 5.99 1.34 6.98 1 8 C-0.32 7.67 -1.64 7.34 -3 7 C-2.25 2.25 -2.25 2.25 0 0 Z " fill="#98897F" transform="translate(62,79)"/>
<path d="M0 0 C2.0625 1.75 2.0625 1.75 4 4 C4 6.125 4 6.125 3 8 C1 9.125 1 9.125 -1 10 C-1.33 10.66 -1.66 11.32 -2 12 C-1.85904936 10.3745692 -1.71207913 8.74965949 -1.5625 7.125 C-1.48128906 6.22007812 -1.40007812 5.31515625 -1.31640625 4.3828125 C-1 2 -1 2 0 0 Z " fill="#4C4A58" transform="translate(117,155)"/>
<path d="M0 0 C1.83203125 2.05078125 1.83203125 2.05078125 3 4 C2.67 4.66 2.34 5.32 2 6 C1.32582031 5.52949219 0.65164062 5.05898438 -0.04296875 4.57421875 C-3.52566663 2.7201537 -6.4063881 2.28707434 -10.3125 1.8125 C-11.56675781 1.65394531 -12.82101563 1.49539062 -14.11328125 1.33203125 C-15.06589844 1.22246094 -16.01851563 1.11289062 -17 1 C-17 0.67 -17 0.34 -17 0 C-11.48187202 -1.34224735 -5.50980679 -1.427187 0 0 Z " fill="#CFBCA7" transform="translate(119,54)"/>
<path d="M0 0 C0.99 0.33 1.98 0.66 3 1 C2.01 1.495 2.01 1.495 1 2 C1 2.66 1 3.32 1 4 C1.66 4 2.32 4 3 4 C3 7.3 3 10.6 3 14 C2.01 14 1.02 14 0 14 C0 9.38 0 4.76 0 0 Z " fill="#302E35" transform="translate(72,178)"/>
<path d="M0 0 C2.97 0 5.94 0 9 0 C9 1.32 9 2.64 9 4 C6.03 4 3.06 4 0 4 C0 2.68 0 1.36 0 0 Z " fill="#F4F4F3" transform="translate(89,156)"/>
<path d="M0 0 C0.33 0 0.66 0 1 0 C1 5.94 1 11.88 1 18 C-0.32 18.33 -1.64 18.66 -3 19 C-3.66 19.66 -4.32 20.32 -5 21 C-4.67 19.02 -4.34 17.04 -4 15 C-3.67 15.66 -3.34 16.32 -3 17 C-2.34 16.67 -1.68 16.34 -1 16 C-0.68758545 13.28553021 -0.48663408 10.66090639 -0.375 7.9375 C-0.33632812 7.17888672 -0.29765625 6.42027344 -0.2578125 5.63867188 C-0.16326438 3.75952805 -0.08053244 1.87979664 0 0 Z M-7 21 C-6.34 21 -5.68 21 -5 21 C-5 21.66 -5 22.32 -5 23 C-5.66 23 -6.32 23 -7 23 C-7 22.34 -7 21.68 -7 21 Z " fill="#44424C" transform="translate(80,159)"/>
<path d="M0 0 C0.99 0.33 1.98 0.66 3 1 C2.67 3.97 2.34 6.94 2 10 C1.34 9.67 0.68 9.34 0 9 C0 8.01 0 7.02 0 6 C-0.66 6 -1.32 6 -2 6 C-1.125 1.125 -1.125 1.125 0 0 Z " fill="#16100E" transform="translate(126,86)"/>
<path d="M0 0 C5.14435648 6.30598537 5.14435648 6.30598537 5.1875 11 C5.20167969 11.70125 5.21585938 12.4025 5.23046875 13.125 C5 15 5 15 3 17 C2.96261719 16.32453125 2.92523438 15.6490625 2.88671875 14.953125 C2.82097656 14.06109375 2.75523437 13.1690625 2.6875 12.25 C2.62949219 11.36828125 2.57148438 10.4865625 2.51171875 9.578125 C2.17601859 6.9130256 2.17601859 6.9130256 0.39453125 4.859375 C-0.06566406 4.24578125 -0.52585938 3.6321875 -1 3 C-0.67 2.01 -0.34 1.02 0 0 Z " fill="#293131" transform="translate(143,135)"/>
<path d="M0 0 C1.65 0 3.3 0 5 0 C5 2.64 5 5.28 5 8 C4.67 8 4.34 8 4 8 C4 6.02 4 4.04 4 2 C0.23975384 4.50683077 -0.39192086 6.86493934 -2 11 C-2.66 11 -3.32 11 -4 11 C-2.7874262 7.27566618 -1.49140021 3.62197194 0 0 Z " fill="#4A4F47" transform="translate(120,96)"/>
<path d="M0 0 C1.64528614 3.12752591 2.91702499 6.3053057 4.125 9.625 C4.47820312 10.58664063 4.83140625 11.54828125 5.1953125 12.5390625 C6 15 6 15 6 17 C5.34 17 4.68 17 4 17 C3.49384702 15.73160474 2.99530901 14.46016898 2.5 13.1875 C2.2215625 12.47980469 1.943125 11.77210937 1.65625 11.04296875 C1 9 1 9 1 6 C0.34 6 -0.32 6 -1 6 C-0.67 4.02 -0.34 2.04 0 0 Z " fill="#44443C" transform="translate(70,95)"/>
<path d="M0 0 C0 2.97 0 5.94 0 9 C-0.33 9 -0.66 9 -1 9 C-1.66 7.02 -2.32 5.04 -3 3 C-4.96756452 3.03122943 -4.96756452 3.03122943 -7 4 C-8.3045656 6.99615946 -8.3045656 6.99615946 -9 10 C-9.33 10 -9.66 10 -10 10 C-10.36585366 4.51219512 -10.36585366 4.51219512 -8.75 2.25 C-3.81818182 -1.27272727 -3.81818182 -1.27272727 0 0 Z " fill="#1F1E19" transform="translate(68,77)"/>
<path d="M0 0 C4.23998354 -0.39259107 7.36733941 -0.32490278 11 2 C11 2.33 11 2.66 11 3 C6.71 3 2.42 3 -2 3 C-1.34 2.01 -0.68 1.02 0 0 Z " fill="#31261E" transform="translate(87,91)"/>
<path d="M0 0 C1.70840281 1.63412443 2.93453047 2.86906094 4 5 C4.04022391 7.3329866 4.04320247 9.66706666 4 12 C1 10 1 10 0 7 C-0.03954234 4.66700175 -0.04401732 2.33291811 0 0 Z " fill="#B3C9C1" transform="translate(62,63)"/>
<path d="M0 0 C2.875 0.3125 2.875 0.3125 6 1 C6.66 1.99 7.32 2.98 8 4 C4.89252306 5.55373847 2.25773473 4.58528628 -1.125 4.0625 C-2.40632813 3.86785156 -3.68765625 3.67320313 -5.0078125 3.47265625 C-5.99523437 3.31667969 -6.98265625 3.16070312 -8 3 C-8 2.67 -8 2.34 -8 2 C-5.36 2 -2.72 2 0 2 C0 1.34 0 0.68 0 0 Z " fill="#443930" transform="translate(111,50)"/>
<path d="M0 0 C0.33 0 0.66 0 1 0 C0.67 3.63 0.34 7.26 0 11 C-0.66 11 -1.32 11 -2 11 C-2 11.66 -2 12.32 -2 13 C-3.98 13 -5.96 13 -8 13 C-8 12.67 -8 12.34 -8 12 C-6.35 12 -4.7 12 -3 12 C-2.80083984 10.82630859 -2.80083984 10.82630859 -2.59765625 9.62890625 C-2.42105469 8.61699219 -2.24445313 7.60507813 -2.0625 6.5625 C-1.88847656 5.55316406 -1.71445313 4.54382813 -1.53515625 3.50390625 C-1 1 -1 1 0 0 Z " fill="#5C5551" transform="translate(119,129)"/>
<path d="M0 0 C1.32 0.33 2.64 0.66 4 1 C4 3.31 4 5.62 4 8 C2.68 8 1.36 8 0 8 C0 5.36 0 2.72 0 0 Z " fill="#E8C798" transform="translate(81,184)"/>
<path d="M0 0 C3.45015205 4.60020273 3.22331682 6.88234832 2.6875 12.25 C2.62626953 12.99507812 2.56503906 13.74015625 2.50195312 14.5078125 C2.3492857 16.33982155 2.17660246 18.17014316 2 20 C1.67 20 1.34 20 1 20 C0.67 13.4 0.34 6.8 0 0 Z " fill="#15131E" transform="translate(73,154)"/>
<path d="M0 0 C0 0.33 0 0.66 0 1 C-2.31 1.33 -4.62 1.66 -7 2 C-5.68 2.99 -4.36 3.98 -3 5 C-5.31 5.33 -7.62 5.66 -10 6 C-9.625 3.0625 -9.625 3.0625 -9 0 C-5.93109813 -1.53445094 -3.29905734 -0.54984289 0 0 Z " fill="#212328" transform="translate(63,130)"/>
<path d="M0 0 C2 2 2 2 2.1953125 4.6015625 C2.17210938 5.59929687 2.14890625 6.59703125 2.125 7.625 C2.10695313 8.62789062 2.08890625 9.63078125 2.0703125 10.6640625 C2.03550781 11.82035156 2.03550781 11.82035156 2 13 C1.01 13 0.02 13 -1 13 C-0.67 8.71 -0.34 4.42 0 0 Z " fill="#0A0D0B" transform="translate(68,93)"/>
<path d="M0 0 C0.99 0.33 1.98 0.66 3 1 C2.34 3.97 1.68 6.94 1 10 C0.5875 9.38125 0.175 8.7625 -0.25 8.125 C-2.05573879 5.93231719 -3.4090534 5.07211583 -6 4 C-4.35 4 -2.7 4 -1 4 C-0.67 2.68 -0.34 1.36 0 0 Z " fill="#231915" transform="translate(94,57)"/>
<path d="M0 0 C1.32 0 2.64 0 4 0 C4.26554687 0.62648437 4.53109375 1.25296875 4.8046875 1.8984375 C5.15789062 2.71570313 5.51109375 3.53296875 5.875 4.375 C6.22304687 5.18710938 6.57109375 5.99921875 6.9296875 6.8359375 C7.92446067 9.13802299 7.92446067 9.13802299 10 11 C7.625 10.75 7.625 10.75 5 10 C2.82168476 7.09557968 2.80284719 4.54875053 3 1 C2.01 0.67 1.02 0.34 0 0 Z " fill="#2A1E1C" transform="translate(95,172)"/>
<path d="M0 0 C0.66 0 1.32 0 2 0 C2.33 0.99 2.66 1.98 3 3 C3.66 2.34 4.32 1.68 5 1 C5 1.99 5 2.98 5 4 C6.32 3.67 7.64 3.34 9 3 C7.625 4.5 7.625 4.5 6 6 C5.34 6 4.68 6 4 6 C3.67 6.66 3.34 7.32 3 8 C2.34 7.67 1.68 7.34 1 7 C0.59270772 4.67843403 0.25561323 2.3431213 0 0 Z " fill="#25241F" transform="translate(124,92)"/>
<path d="M0 0 C2.97 0.495 2.97 0.495 6 1 C6 5.33333333 6 9.66666667 6 14 C5.67 14 5.34 14 5 14 C5 11.36 5 8.72 5 6 C4.01 6 3.02 6 2 6 C2 4.35 2 2.7 2 1 C1.34 0.67 0.68 0.34 0 0 Z " fill="#2B211C" transform="translate(117,58)"/>
<path d="M0 0 C-0.33 1.32 -0.66 2.64 -1 4 C-2.98 4.33 -4.96 4.66 -7 5 C-6.67 4.01 -6.34 3.02 -6 2 C-6.66 1.67 -7.32 1.34 -8 1 C-5.07175348 0.02391783 -3.04386724 -0.08226668 0 0 Z " fill="#3D3029" transform="translate(84,49)"/>
<path d="M0 0 C0.33 0 0.66 0 1 0 C1 2.97 1 5.94 1 9 C-0.32 8.34 -1.64 7.68 -3 7 C-2.67 5.35 -2.34 3.7 -2 2 C-1.34 2 -0.68 2 0 2 C0 1.34 0 0.68 0 0 Z " fill="#363438" transform="translate(70,175)"/>
<path d="M0 0 C-2.46301423 2.46301423 -4.27360036 2.76766521 -7.625 3.625 C-9.12933594 4.01558594 -9.12933594 4.01558594 -10.6640625 4.4140625 C-11.43492188 4.60742188 -12.20578125 4.80078125 -13 5 C-12.67 4.01 -12.34 3.02 -12 2 C-7.9083139 0.19204568 -4.44280672 -0.21156222 0 0 Z " fill="#4D3F35" transform="translate(82,65)"/>
<path d="M0 0 C1.32 0 2.64 0 4 0 C4 1.98 4 3.96 4 6 C3.01 6.33 2.02 6.66 1 7 C0.67 4.69 0.34 2.38 0 0 Z " fill="#3E3C40" transform="translate(120,181)"/>
<path d="M0 0 C2.32947183 2.11770166 3.88750845 4.03335588 5 7 C4.67 7.99 4.34 8.98 4 10 C3.443125 8.7934375 3.443125 8.7934375 2.875 7.5625 C1.1890663 4.68827104 1.1890663 4.68827104 -2.1875 4.1875 C-3.5796875 4.0946875 -3.5796875 4.0946875 -5 4 C-5 3.67 -5 3.34 -5 3 C-3.35 3 -1.7 3 0 3 C0 2.01 0 1.02 0 0 Z " fill="#14151D" transform="translate(54,157)"/>
<path d="M0 0 C0.33 0 0.66 0 1 0 C0.19642857 8.03571429 0.19642857 8.03571429 -2 12 C-2.05422947 10.5629191 -2.09289723 9.12524538 -2.125 7.6875 C-2.14820312 6.88699219 -2.17140625 6.08648437 -2.1953125 5.26171875 C-2 3 -2 3 0 0 Z " fill="#06060D" transform="translate(115,158)"/>
<path d="M0 0 C0.33 0 0.66 0 1 0 C0.67 2.97 0.34 5.94 0 9 C-0.66 9 -1.32 9 -2 9 C-2 7.68 -2 6.36 -2 5 C-2.66 4.67 -3.32 4.34 -4 4 C-3.34 4 -2.68 4 -2 4 C-2 3.34 -2 2.68 -2 2 C-1.34 2 -0.68 2 0 2 C0 1.34 0 0.68 0 0 Z " fill="#070505" transform="translate(119,138)"/>
<path d="M0 0 C1.99954746 -0.04254356 4.00041636 -0.04080783 6 0 C7 1 7 1 7.0625 4.0625 C7.041875 5.031875 7.02125 6.00125 7 7 C6.5875 6.360625 6.175 5.72125 5.75 5.0625 C3.82189513 2.79009069 2.88575819 2.39803561 0 2 C0 1.34 0 0.68 0 0 Z " fill="#EEDDC0" transform="translate(128,75)"/>
<path d="M0 0 C0.33 0 0.66 0 1 0 C1.66 2.97 2.32 5.94 3 9 C0.525 10.485 0.525 10.485 -2 12 C-1.34 8.04 -0.68 4.08 0 0 Z " fill="#433F4D" transform="translate(116,175)"/>
<path d="M0 0 C0.33 1.32 0.66 2.64 1 4 C1.66 4 2.32 4 3 4 C2.49396008 6.16874252 2.00016187 7.99967627 1 10 C0.34 10 -0.32 10 -1 10 C-0.67 6.7 -0.34 3.4 0 0 Z " fill="#2F2420" transform="translate(121,74)"/>
<path d="M0 0 C0.33 0 0.66 0 1 0 C1.66 4.29 2.32 8.58 3 13 C2.34 13 1.68 13 1 13 C-0.32229189 10.35541621 -0.09677194 8.32238699 -0.0625 5.375 C-0.05347656 4.37210937 -0.04445313 3.36921875 -0.03515625 2.3359375 C-0.02355469 1.56507812 -0.01195313 0.79421875 0 0 Z " fill="#816F62" transform="translate(86,70)"/>
<path d="M0 0 C0.33 0.66 0.66 1.32 1 2 C2.65 2 4.3 2 6 2 C5.67 2.66 5.34 3.32 5 4 C4.34 4 3.68 4 3 4 C3 4.66 3 5.32 3 6 C2.01 6 1.02 6 0 6 C0 4.02 0 2.04 0 0 Z " fill="#130D0C" transform="translate(122,72)"/>
<path d="M0 0 C-0.66 1.65 -1.32 3.3 -2 5 C-2.33 4.34 -2.66 3.68 -3 3 C-3.66 3 -4.32 3 -5 3 C-5.33 2.01 -5.66 1.02 -6 0 C-3 -1 -3 -1 0 0 Z " fill="#2F2E36" transform="translate(129,178)"/>
<path d="M0 0 C0.99 0.33 1.98 0.66 3 1 C4.1875 4.0625 4.1875 4.0625 5 7 C4.01 7.33 3.02 7.66 2 8 C2 7.01 2 6.02 2 5 C1.34 5 0.68 5 0 5 C0 3.35 0 1.7 0 0 Z " fill="#1C171E" transform="translate(107,174)"/>
<path d="M0 0 C0.66 0 1.32 0 2 0 C2 3.3 2 6.6 2 10 C1.67 8.68 1.34 7.36 1 6 C0.34 6 -0.32 6 -1 6 C-0.67 4.02 -0.34 2.04 0 0 Z " fill="#E4CFB7" transform="translate(120,64)"/>
</svg>
